<?xml version="1.0" encoding="UTF-8" standalone="no"?>
<!DOCTYPE svg PUBLIC "-//W3C//DTD SVG 1.1//EN"
 "http://www.w3.org/Graphics/SVG/1.1/DTD/svg11.dtd">
<!-- Generated by graphviz version 14.0.4 (0)
 -->
<!-- Title: modules Pages: 1 -->
<svg width="822pt" height="823pt"
 viewBox="0.00 0.00 822.00 823.00" xmlns="http://www.w3.org/2000/svg" xmlns:xlink="http://www.w3.org/1999/xlink">
<g id="graph0" class="graph" transform="scale(1 1) rotate(0) translate(4 818.89)">
<title>modules</title>
<g id="clust1" class="cluster">
<title>cluster_navigation</title>
<polygon fill="#aa96da" fill-opacity="0.062745" stroke="#aa96da" stroke-dasharray="5,2" points="142.58,-269.02 142.58,-412.03 521.62,-412.03 521.62,-269.02 142.58,-269.02"/>
<text xml:space="preserve" text-anchor="middle" x="479.12" y="-394.73" font-family="fixed" font-size="14.00" fill="#b5e4f4">navigation</text>
</g>
<g id="clust2" class="cluster">
<title>cluster_perception</title>
<polygon fill="#9575cd" fill-opacity="0.062745" stroke="#9575cd" stroke-dasharray="5,2" points="322,-686.04 322,-814.89 455.04,-814.89 455.04,-686.04 322,-686.04"/>
<text xml:space="preserve" text-anchor="middle" x="411.42" y="-797.59" font-family="fixed" font-size="14.00" fill="#b5e4f4">perception</text>
</g>
<g id="clust3" class="cluster">
<title>cluster_robot</title>
<polygon fill="#64b5f6" fill-opacity="0.062745" stroke="#64b5f6" stroke-dasharray="5,2" points="509.83,-457.46 509.83,-590.67 630.23,-590.67 630.23,-457.46 509.83,-457.46"/>
<text xml:space="preserve" text-anchor="middle" x="604.61" y="-573.37" font-family="fixed" font-size="14.00" fill="#b5e4f4">robot</text>
</g>
<!-- AstarPlanner -->
<g id="node1" class="node">
<title>AstarPlanner</title>
<polygon fill="#0b0f0f" stroke="#5c9ff0" points="402.38,-376.53 313.73,-376.53 313.73,-340.53 402.38,-340.53 402.38,-376.53"/>
<text xml:space="preserve" text-anchor="middle" x="358.06" y="-355.76" font-family="fixed" font-size="12.00" fill="#b5e4f4">AstarPlanner</text>
</g>
<!-- BehaviorTreeNavigator -->
<g id="node2" class="node">
<title>BehaviorTreeNavigator</title>
<polygon fill="#0b0f0f" stroke="#5c9ff0" points="328.29,-316.51 183.39,-316.51 183.39,-280.51 328.29,-280.51 328.29,-316.51"/>
<text xml:space="preserve" text-anchor="middle" x="255.84" y="-295.73" font-family="fixed" font-size="12.00" fill="#b5e4f4">BehaviorTreeNavigator</text>
</g>
<!-- AstarPlanner&#45;&gt;BehaviorTreeNavigator -->
<!-- chan_path_Path -->
<g id="node17" class="node">
<title>chan_path_Path</title>
<polygon fill="#f06292" fill-opacity="0.207843" stroke="#f06292" points="59.4,-318.83 0,-318.83 0,-297.38 59.4,-297.38 59.4,-318.83"/>
<text xml:space="preserve" text-anchor="middle" x="29.7" y="-305.73" font-family="fixed" font-size="10.00" fill="#b5e4f4">path:Path</text>
</g>
<!-- AstarPlanner&#45;&gt;chan_path_Path -->
<g id="edge25" class="edge">
<title>AstarPlanner&#45;&gt;chan_path_Path</title>
<path fill="none" stroke="#f06292" d="M335.41,-340.16C326.32,-333.87 315.41,-327.55 304.43,-324.14 291.18,-320.04 193.54,-320.99 179.69,-320.21 138.09,-317.87 90.1,-313.75 59.84,-310.97"/>
</g>
<!-- HolonomicLocalPlanner -->
<g id="node3" class="node">
<title>HolonomicLocalPlanner</title>
<polygon fill="#0b0f0f" stroke="#5c9ff0" points="300.73,-363.84 150.58,-363.84 150.58,-327.84 300.73,-327.84 300.73,-363.84"/>
<text xml:space="preserve" text-anchor="middle" x="225.65" y="-343.07" font-family="fixed" font-size="12.00" fill="#b5e4f4">HolonomicLocalPlanner</text>
</g>
<!-- BehaviorTreeNavigator&#45;&gt;HolonomicLocalPlanner -->
<!-- chan_goal_reached_Bool -->
<g id="node13" class="node">
<title>chan_goal_reached_Bool</title>
<polygon fill="#dce775" fill-opacity="0.207843" stroke="#dce775" points="399.15,-258.98 299.25,-258.98 299.25,-237.53 399.15,-237.53 399.15,-258.98"/>
<text xml:space="preserve" text-anchor="middle" x="349.2" y="-245.88" font-family="fixed" font-size="10.00" fill="#b5e4f4">goal_reached:Bool</text>
</g>
<!-- BehaviorTreeNavigator&#45;&gt;chan_goal_reached_Bool -->
<g id="edge17" class="edge">
<title>BehaviorTreeNavigator&#45;&gt;chan_goal_reached_Bool</title>
<path fill="none" stroke="#dce775" d="M290.08,-280.08C302.98,-273.13 317.26,-265.45 328.55,-259.37"/>
</g>
<!-- chan_target_PoseStamped -->
<g id="node18" class="node">
<title>chan_target_PoseStamped</title>
<polygon fill="#ff6b6b" fill-opacity="0.207843" stroke="#ff6b6b" points="365.41,-21.45 255.76,-21.45 255.76,0 365.41,0 365.41,-21.45"/>
<text xml:space="preserve" text-anchor="middle" x="310.59" y="-8.35" font-family="fixed" font-size="10.00" fill="#b5e4f4">target:PoseStamped</text>
</g>
<!-- BehaviorTreeNavigator&#45;&gt;chan_target_PoseStamped -->
<g id="edge27" class="edge">
<title>BehaviorTreeNavigator&#45;&gt;chan_target_PoseStamped</title>
<path fill="none" stroke="#ff6b6b" d="M261.23,-280.33C262.63,-275.29 264.08,-269.8 265.24,-264.69 286.42,-171.67 303.75,-57.63 308.97,-21.94"/>
</g>
<!-- WavefrontFrontierExplorer -->
<g id="node4" class="node">
<title>WavefrontFrontierExplorer</title>
<polygon fill="#0b0f0f" stroke="#5c9ff0" points="513.62,-313.02 347.72,-313.02 347.72,-277.02 513.62,-277.02 513.62,-313.02"/>
<text xml:space="preserve" text-anchor="middle" x="430.67" y="-292.24" font-family="fixed" font-size="12.00" fill="#b5e4f4">WavefrontFrontierExplorer</text>
</g>
<!-- HolonomicLocalPlanner&#45;&gt;WavefrontFrontierExplorer -->
<!-- chan_cmd_vel_Twist -->
<g id="node10" class="node">
<title>chan_cmd_vel_Twist</title>
<polygon fill="#4db6ac" fill-opacity="0.207843" stroke="#4db6ac" points="435.06,-444 356.91,-444 356.91,-422.55 435.06,-422.55 435.06,-444"/>
<text xml:space="preserve" text-anchor="middle" x="395.99" y="-430.9" font-family="fixed" font-size="10.00" fill="#b5e4f4">cmd_vel:Twist</text>
</g>
<!-- HolonomicLocalPlanner&#45;&gt;chan_cmd_vel_Twist -->
<g id="edge8" class="edge">
<title>HolonomicLocalPlanner&#45;&gt;chan_cmd_vel_Twist</title>
<path fill="none" stroke="#4db6ac" d="M261.36,-364.17C295.5,-381.7 345.88,-407.55 374.34,-422.16"/>
</g>
<!-- chan_goal_request_PoseStamped -->
<g id="node14" class="node">
<title>chan_goal_request_PoseStamped</title>
<polygon fill="#fff59d" fill-opacity="0.207843" stroke="#fff59d" points="261.54,-260.99 120.39,-260.99 120.39,-239.54 261.54,-239.54 261.54,-260.99"/>
<text xml:space="preserve" text-anchor="middle" x="190.96" y="-247.89" font-family="fixed" font-size="10.00" fill="#b5e4f4">goal_request:PoseStamped</text>
</g>
<!-- WavefrontFrontierExplorer&#45;&gt;chan_goal_request_PoseStamped -->
<g id="edge19" class="edge">
<title>WavefrontFrontierExplorer&#45;&gt;chan_goal_request_PoseStamped</title>
<path fill="none" stroke="#fff59d" d="M347.5,-279.49C315.73,-273.56 280.14,-266.91 250.94,-261.46"/>
</g>
<!-- ObjectTracking -->
<g id="node5" class="node">
<title>ObjectTracking</title>
<polygon fill="#0b0f0f" stroke="#5c9ff0" points="429.15,-730.04 330,-730.04 330,-694.04 429.15,-694.04 429.15,-730.04"/>
<text xml:space="preserve" text-anchor="middle" x="379.58" y="-709.26" font-family="fixed" font-size="12.00" fill="#b5e4f4">ObjectTracking</text>
</g>
<!-- SpatialMemory -->
<g id="node6" class="node">
<title>SpatialMemory</title>
<polygon fill="#0b0f0f" stroke="#5c9ff0" points="447.04,-779.39 346.39,-779.39 346.39,-743.39 447.04,-743.39 447.04,-779.39"/>
<text xml:space="preserve" text-anchor="middle" x="396.72" y="-758.61" font-family="fixed" font-size="12.00" fill="#b5e4f4">SpatialMemory</text>
</g>
<!-- ObjectTracking&#45;&gt;SpatialMemory -->
<!-- GO2Connection -->
<g id="node7" class="node">
<title>GO2Connection</title>
<polygon fill="#0b0f0f" stroke="#5c9ff0" points="622.23,-555.17 517.83,-555.17 517.83,-519.17 622.23,-519.17 622.23,-555.17"/>
<text xml:space="preserve" text-anchor="middle" x="570.03" y="-534.39" font-family="fixed" font-size="12.00" fill="#b5e4f4">GO2Connection</text>
</g>
<!-- Map -->
<g id="node8" class="node">
<title>Map</title>
<polygon fill="#0b0f0f" stroke="#5c9ff0" points="604.06,-501.46 550.06,-501.46 550.06,-465.46 604.06,-465.46 604.06,-501.46"/>
<text xml:space="preserve" text-anchor="middle" x="577.06" y="-480.68" font-family="fixed" font-size="12.00" fill="#b5e4f4">Map</text>
</g>
<!-- GO2Connection&#45;&gt;Map -->
<!-- chan_camera_info_CameraInfo -->
<g id="node9" class="node">
<title>chan_camera_info_CameraInfo</title>
<polygon fill="#dce775" fill-opacity="0.207843" stroke="#dce775" points="473.39,-675.38 344.99,-675.38 344.99,-653.93 473.39,-653.93 473.39,-675.38"/>
<text xml:space="preserve" text-anchor="middle" x="409.19" y="-662.28" font-family="fixed" font-size="10.00" fill="#b5e4f4">camera_info:CameraInfo</text>
</g>
<!-- GO2Connection&#45;&gt;chan_camera_info_CameraInfo -->
<g id="edge6" class="edge">
<title>GO2Connection&#45;&gt;chan_camera_info_CameraInfo</title>
<path fill="none" stroke="#dce775" d="M546.99,-555.43C513.11,-582.28 450.89,-631.6 423.16,-653.58"/>
</g>
<!-- chan_color_image_Image -->
<g id="node11" class="node">
<title>chan_color_image_Image</title>
<polygon fill="#95e1d3" fill-opacity="0.207843" stroke="#95e1d3" points="629.56,-736.85 525.91,-736.85 525.91,-715.4 629.56,-715.4 629.56,-736.85"/>
<text xml:space="preserve" text-anchor="middle" x="577.74" y="-723.75" font-family="fixed" font-size="10.00" fill="#b5e4f4">color_image:Image</text>
</g>
<!-- GO2Connection&#45;&gt;chan_color_image_Image -->
<g id="edge10" class="edge">
<title>GO2Connection&#45;&gt;chan_color_image_Image</title>
<path fill="none" stroke="#95e1d3" d="M570.79,-555.63C572.37,-594.45 576,-683.52 577.28,-714.92"/>
</g>
<!-- chan_lidar_LidarMessage -->
<g id="node15" class="node">
<title>chan_lidar_LidarMessage</title>
<polygon fill="#7986cb" fill-opacity="0.207843" stroke="#7986cb" points="814.2,-607.16 712.05,-607.16 712.05,-585.71 814.2,-585.71 814.2,-607.16"/>
<text xml:space="preserve" text-anchor="middle" x="763.12" y="-594.06" font-family="fixed" font-size="10.00" fill="#b5e4f4">lidar:LidarMessage</text>
</g>
<!-- GO2Connection&#45;&gt;chan_lidar_LidarMessage -->
<g id="edge21" class="edge">
<title>GO2Connection&#45;&gt;chan_lidar_LidarMessage</title>
<path fill="none" stroke="#7986cb" d="M622.54,-553.28C655.6,-563.43 697.42,-576.27 726.82,-585.29"/>
</g>
<!-- chan_global_costmap_OccupancyGrid -->
<g id="node12" class="node">
<title>chan_global_costmap_OccupancyGrid</title>
<polygon fill="#ff8a65" fill-opacity="0.207843" stroke="#ff8a65" points="753.77,-328.65 595.37,-328.65 595.37,-307.2 753.77,-307.2 753.77,-328.65"/>
<text xml:space="preserve" text-anchor="middle" x="674.57" y="-315.55" font-family="fixed" font-size="10.00" fill="#b5e4f4">global_costmap:OccupancyGrid</text>
</g>
<!-- Map&#45;&gt;chan_global_costmap_OccupancyGrid -->
<g id="edge13" class="edge">
<title>Map&#45;&gt;chan_global_costmap_OccupancyGrid</title>
<path fill="none" stroke="#ff8a65" d="M549.7,-467.56C543.98,-462.86 538.72,-457.16 535.52,-450.53 529.94,-438.98 529.77,-433.14 535.52,-421.68 558.75,-375.37 613.53,-344.45 646.98,-329.15"/>
</g>
<!-- chan_local_costmap_OccupancyGrid -->
<g id="node16" class="node">
<title>chan_local_costmap_OccupancyGrid</title>
<polygon fill="#f06292" fill-opacity="0.207843" stroke="#f06292" points="690.12,-446.83 539.22,-446.83 539.22,-425.38 690.12,-425.38 690.12,-446.83"/>
<text xml:space="preserve" text-anchor="middle" x="614.67" y="-433.73" font-family="fixed" font-size="10.00" fill="#b5e4f4">local_costmap:OccupancyGrid</text>
</g>
<!-- Map&#45;&gt;chan_local_costmap_OccupancyGrid -->
<g id="edge23" class="edge">
<title>Map&#45;&gt;chan_local_costmap_OccupancyGrid</title>
<path fill="none" stroke="#f06292" d="M591.71,-465.01C596.49,-458.99 601.66,-452.49 605.87,-447.18"/>
</g>
<!-- chan_camera_info_CameraInfo&#45;&gt;ObjectTracking -->
<g id="edge7" class="edge">
<title>chan_camera_info_CameraInfo&#45;&gt;ObjectTracking</title>
<path fill="none" stroke="#dce775" d="M402.32,-675.64C400.7,-678.24 398.9,-681.12 397.04,-684.1"/>
<polygon fill="#dce775" stroke="#dce775" points="394.18,-682.06 391.85,-692.4 400.12,-685.77 394.18,-682.06"/>
</g>
<!-- chan_cmd_vel_Twist&#45;&gt;GO2Connection -->
<g id="edge9" class="edge">
<title>chan_cmd_vel_Twist&#45;&gt;GO2Connection</title>
<path fill="none" stroke="#4db6ac" d="M414.61,-444.39C441.87,-460.66 493.3,-491.36 529.51,-512.98"/>
<polygon fill="#4db6ac" stroke="#4db6ac" points="527.61,-515.92 537.99,-518.04 531.2,-509.91 527.61,-515.92"/>
</g>
<!-- chan_color_image_Image&#45;&gt;ObjectTracking -->
<g id="edge12" class="edge">
<title>chan_color_image_Image&#45;&gt;ObjectTracking</title>
<path fill="none" stroke="#95e1d3" d="M525.41,-722.41C499.43,-720.56 467.87,-718.31 440.77,-716.39"/>
<polygon fill="#95e1d3" stroke="#95e1d3" points="441.19,-712.91 430.97,-715.69 440.69,-719.89 441.19,-712.91"/>
</g>
<!-- chan_color_image_Image&#45;&gt;SpatialMemory -->
<g id="edge11" class="edge">
<title>chan_color_image_Image&#45;&gt;SpatialMemory</title>
<path fill="none" stroke="#95e1d3" d="M525.87,-736.23C504.87,-740.32 480.46,-745.08 458.55,-749.34"/>
<polygon fill="#95e1d3" stroke="#95e1d3" points="457.98,-745.89 448.84,-751.24 459.32,-752.76 457.98,-745.89"/>
</g>
<!-- chan_global_costmap_OccupancyGrid&#45;&gt;AstarPlanner -->
<g id="edge14" class="edge">
<title>chan_global_costmap_OccupancyGrid&#45;&gt;AstarPlanner</title>
<path fill="none" stroke="#ff8a65" d="M595.11,-328.12C538.71,-335.36 464.38,-344.89 414.1,-351.34"/>
<polygon fill="#ff8a65" stroke="#ff8a65" points="413.78,-347.85 404.31,-352.6 414.67,-354.8 413.78,-347.85"/>
</g>
<!-- chan_global_costmap_OccupancyGrid&#45;&gt;BehaviorTreeNavigator -->
<g id="edge15" class="edge">
<title>chan_global_costmap_OccupancyGrid&#45;&gt;BehaviorTreeNavigator</title>
<path fill="none" stroke="#ff8a65" d="M595.19,-322.07C528.08,-324.51 429.49,-325.61 344.02,-316.72 342.57,-316.57 341.12,-316.4 339.66,-316.23"/>
<polygon fill="#ff8a65" stroke="#ff8a65" points="340.2,-312.77 329.82,-314.88 339.25,-319.71 340.2,-312.77"/>
</g>
<!-- chan_global_costmap_OccupancyGrid&#45;&gt;WavefrontFrontierExplorer -->
<g id="edge16" class="edge">
<title>chan_global_costmap_OccupancyGrid&#45;&gt;WavefrontFrontierExplorer</title>
<path fill="none" stroke="#ff8a65" d="M595.04,-310.46C572.7,-308.36 548.19,-306.06 525.08,-303.89"/>
<polygon fill="#ff8a65" stroke="#ff8a65" points="525.65,-300.42 515.36,-302.97 524.99,-307.39 525.65,-300.42"/>
</g>
<!-- chan_goal_reached_Bool&#45;&gt;WavefrontFrontierExplorer -->
<g id="edge18" class="edge">
<title>chan_goal_reached_Bool&#45;&gt;WavefrontFrontierExplorer</title>
<path fill="none" stroke="#dce775" d="M368.51,-259.34C374.65,-262.87 381.71,-266.92 388.81,-270.99"/>
<polygon fill="#dce775" stroke="#dce775" points="386.71,-273.82 397.13,-275.77 390.2,-267.75 386.71,-273.82"/>
</g>
<!-- chan_goal_request_PoseStamped&#45;&gt;BehaviorTreeNavigator -->
<g id="edge20" class="edge">
<title>chan_goal_request_PoseStamped&#45;&gt;BehaviorTreeNavigator</title>
<path fill="none" stroke="#fff59d" d="M206.01,-261.45C210.76,-264.98 216.21,-269.04 221.73,-273.14"/>
<polygon fill="#fff59d" stroke="#fff59d" points="219.64,-275.95 229.75,-279.11 223.82,-270.33 219.64,-275.95"/>
</g>
<!-- chan_lidar_LidarMessage&#45;&gt;Map -->
<g id="edge22" class="edge">
<title>chan_lidar_LidarMessage&#45;&gt;Map</title>
<path fill="none" stroke="#7986cb" d="M744.94,-585.39C714.74,-567.06 653.65,-529.96 614.09,-505.94"/>
<polygon fill="#7986cb" stroke="#7986cb" points="615.94,-502.97 605.57,-500.77 612.3,-508.95 615.94,-502.97"/>
</g>
<!-- chan_local_costmap_OccupancyGrid&#45;&gt;HolonomicLocalPlanner -->
<g id="edge24" class="edge">
<title>chan_local_costmap_OccupancyGrid&#45;&gt;HolonomicLocalPlanner</title>
<path fill="none" stroke="#f06292" d="M538.86,-426.62C476.61,-417.78 386.55,-402.58 310.03,-380.23 298.98,-377 287.4,-372.83 276.48,-368.52"/>
<polygon fill="#f06292" stroke="#f06292" points="277.81,-365.28 267.22,-364.75 275.17,-371.76 277.81,-365.28"/>
</g>
<!-- chan_path_Path&#45;&gt;HolonomicLocalPlanner -->
<g id="edge26" class="edge">
<title>chan_path_Path&#45;&gt;HolonomicLocalPlanner</title>
<path fill="none" stroke="#f06292" d="M59.89,-313.92C81.12,-318.01 110.68,-323.7 138.96,-329.15"/>
<polygon fill="#f06292" stroke="#f06292" points="138.17,-332.56 148.65,-331.01 139.49,-325.69 138.17,-332.56"/>
</g>
<!-- chan_target_PoseStamped&#45;&gt;AstarPlanner -->
<g id="edge28" class="edge">
<title>chan_target_PoseStamped&#45;&gt;AstarPlanner</title>
<path fill="none" stroke="#ff6b6b" d="M305.57,-21.8C289.32,-59.49 242.19,-184.77 295.55,-262.68 305.37,-277.01 320.19,-264.06 331.99,-276.81 344.58,-290.4 338.4,-299.07 344.02,-316.72 345.32,-320.83 346.74,-325.15 348.14,-329.4"/>
<polygon fill="#ff6b6b" stroke="#ff6b6b" points="344.8,-330.45 351.3,-338.82 351.44,-328.22 344.8,-330.45"/>
</g>
</g>
</svg>
