<?xml version="1.0" encoding="UTF-8" standalone="no"?>
<!DOCTYPE svg PUBLIC "-//W3C//DTD SVG 1.1//EN"
 "http://www.w3.org/Graphics/SVG/1.1/DTD/svg11.dtd">
<!-- Generated by graphviz version 14.0.4 (0)
 -->
<!-- Title: modules Pages: 1 -->
<svg width="1072pt" height="376pt"
 viewBox="0.00 0.00 1072.00 376.00" xmlns="http://www.w3.org/2000/svg" xmlns:xlink="http://www.w3.org/1999/xlink">
<g id="graph0" class="graph" transform="scale(1 1) rotate(0) translate(4 371.95)">
<title>modules</title>
<g id="clust1" class="cluster">
<title>cluster_navigation</title>
<polygon fill="#aa96da" fill-opacity="0.062745" stroke="#aa96da" stroke-dasharray="5,2" points="531.2,-49.45 531.2,-359.95 713.2,-359.95 713.2,-49.45 531.2,-49.45"/>
<text xml:space="preserve" text-anchor="middle" x="670.7" y="-342.65" font-family="fixed" font-size="14.00" fill="#b5e4f4">navigation</text>
</g>
<g id="clust2" class="cluster">
<title>cluster_perception</title>
<polygon fill="#9575cd" fill-opacity="0.062745" stroke="#9575cd" stroke-dasharray="5,2" points="48.2,-121.45 48.2,-280.45 164.2,-280.45 164.2,-121.45 48.2,-121.45"/>
<text xml:space="preserve" text-anchor="middle" x="120.58" y="-263.15" font-family="fixed" font-size="14.00" fill="#b5e4f4">perception</text>
</g>
<g id="clust3" class="cluster">
<title>cluster_robot</title>
<polygon fill="#64b5f6" fill-opacity="0.062745" stroke="#64b5f6" stroke-dasharray="5,2" points="172.2,-49.45 172.2,-200.95 292.2,-200.95 292.2,-49.45 172.2,-49.45"/>
<text xml:space="preserve" text-anchor="middle" x="266.57" y="-183.65" font-family="fixed" font-size="14.00" fill="#b5e4f4">robot</text>
</g>
<!-- AstarPlanner -->
<g id="node1" class="node">
<title>AstarPlanner</title>
<polygon fill="#0b0f0f" stroke="#5c9ff0" points="627.53,-324.45 538.88,-324.45 538.88,-288.45 627.53,-288.45 627.53,-324.45"/>
<text xml:space="preserve" text-anchor="middle" x="583.2" y="-303.68" font-family="fixed" font-size="12.00" fill="#b5e4f4">AstarPlanner</text>
</g>
<!-- BehaviorTreeNavigator -->
<g id="node2" class="node">
<title>BehaviorTreeNavigator</title>
<polygon fill="#0b0f0f" stroke="#5c9ff0" points="705.65,-244.95 560.75,-244.95 560.75,-208.95 705.65,-208.95 705.65,-244.95"/>
<text xml:space="preserve" text-anchor="middle" x="633.2" y="-224.17" font-family="fixed" font-size="12.00" fill="#b5e4f4">BehaviorTreeNavigator</text>
</g>
<!-- AstarPlanner&#45;&gt;BehaviorTreeNavigator -->
<!-- ObjectTracking -->
<g id="node5" class="node">
<title>ObjectTracking</title>
<polygon fill="#0b0f0f" stroke="#5c9ff0" points="155.78,-244.95 56.62,-244.95 56.62,-208.95 155.78,-208.95 155.78,-244.95"/>
<text xml:space="preserve" text-anchor="middle" x="106.2" y="-224.17" font-family="fixed" font-size="12.00" fill="#b5e4f4">ObjectTracking</text>
</g>
<!-- AstarPlanner&#45;&gt;ObjectTracking -->
<!-- chan_path_Path -->
<g id="node17" class="node">
<title>chan_path_Path</title>
<polygon fill="#f06292" fill-opacity="0.207843" stroke="#f06292" points="522.9,-237.67 463.5,-237.67 463.5,-216.22 522.9,-216.22 522.9,-237.67"/>
<text xml:space="preserve" text-anchor="middle" x="493.2" y="-224.57" font-family="fixed" font-size="10.00" fill="#b5e4f4">path:Path</text>
</g>
<!-- AstarPlanner&#45;&gt;chan_path_Path -->
<g id="edge27" class="edge">
<title>AstarPlanner&#45;&gt;chan_path_Path</title>
<path fill="none" stroke="#f06292" d="M538.63,-288.51C534.57,-286.11 530.68,-283.43 527.2,-280.45 513.34,-268.59 503.03,-249.68 497.58,-238.09"/>
</g>
<!-- HolonomicLocalPlanner -->
<g id="node3" class="node">
<title>HolonomicLocalPlanner</title>
<polygon fill="#0b0f0f" stroke="#5c9ff0" points="689.28,-165.45 539.12,-165.45 539.12,-129.45 689.28,-129.45 689.28,-165.45"/>
<text xml:space="preserve" text-anchor="middle" x="614.2" y="-144.67" font-family="fixed" font-size="12.00" fill="#b5e4f4">HolonomicLocalPlanner</text>
</g>
<!-- BehaviorTreeNavigator&#45;&gt;HolonomicLocalPlanner -->
<!-- chan_goal_reached_Bool -->
<g id="node13" class="node">
<title>chan_goal_reached_Bool</title>
<polygon fill="#dce775" fill-opacity="0.207843" stroke="#dce775" points="821.15,-158.17 721.25,-158.17 721.25,-136.72 821.15,-136.72 821.15,-158.17"/>
<text xml:space="preserve" text-anchor="middle" x="771.2" y="-145.07" font-family="fixed" font-size="10.00" fill="#b5e4f4">goal_reached:Bool</text>
</g>
<!-- BehaviorTreeNavigator&#45;&gt;chan_goal_reached_Bool -->
<g id="edge19" class="edge">
<title>BehaviorTreeNavigator&#45;&gt;chan_goal_reached_Bool</title>
<path fill="none" stroke="#dce775" d="M701.78,-208.62C707.14,-206.34 712.34,-203.8 717.2,-200.95 736.38,-189.71 753.9,-170.24 763.5,-158.44"/>
</g>
<!-- chan_target_PoseStamped -->
<g id="node18" class="node">
<title>chan_target_PoseStamped</title>
<polygon fill="#ff6b6b" fill-opacity="0.207843" stroke="#ff6b6b" points="987.03,-158.17 877.38,-158.17 877.38,-136.72 987.03,-136.72 987.03,-158.17"/>
<text xml:space="preserve" text-anchor="middle" x="932.2" y="-145.07" font-family="fixed" font-size="10.00" fill="#b5e4f4">target:PoseStamped</text>
</g>
<!-- BehaviorTreeNavigator&#45;&gt;chan_target_PoseStamped -->
<g id="edge29" class="edge">
<title>BehaviorTreeNavigator&#45;&gt;chan_target_PoseStamped</title>
<path fill="none" stroke="#ff6b6b" d="M705.9,-220.01C767.74,-214.64 848.77,-206.7 863.2,-200.95 887.25,-191.36 910.13,-170.96 922.56,-158.6"/>
</g>
<!-- WavefrontFrontierExplorer -->
<g id="node4" class="node">
<title>WavefrontFrontierExplorer</title>
<polygon fill="#0b0f0f" stroke="#5c9ff0" points="705.15,-93.45 539.25,-93.45 539.25,-57.45 705.15,-57.45 705.15,-93.45"/>
<text xml:space="preserve" text-anchor="middle" x="622.2" y="-72.67" font-family="fixed" font-size="12.00" fill="#b5e4f4">WavefrontFrontierExplorer</text>
</g>
<!-- HolonomicLocalPlanner&#45;&gt;WavefrontFrontierExplorer -->
<!-- chan_cmd_vel_Twist -->
<g id="node10" class="node">
<title>chan_cmd_vel_Twist</title>
<polygon fill="#4db6ac" fill-opacity="0.207843" stroke="#4db6ac" points="450.27,-86.17 372.12,-86.17 372.12,-64.72 450.27,-64.72 450.27,-86.17"/>
<text xml:space="preserve" text-anchor="middle" x="411.2" y="-73.07" font-family="fixed" font-size="10.00" fill="#b5e4f4">cmd_vel:Twist</text>
</g>
<!-- HolonomicLocalPlanner&#45;&gt;chan_cmd_vel_Twist -->
<g id="edge10" class="edge">
<title>HolonomicLocalPlanner&#45;&gt;chan_cmd_vel_Twist</title>
<path fill="none" stroke="#4db6ac" d="M563.5,-128.97C524.74,-115.6 472.68,-97.65 440.56,-86.57"/>
</g>
<!-- chan_goal_request_PoseStamped -->
<g id="node14" class="node">
<title>chan_goal_request_PoseStamped</title>
<polygon fill="#fff59d" fill-opacity="0.207843" stroke="#fff59d" points="805.78,-21.45 664.62,-21.45 664.62,0 805.78,0 805.78,-21.45"/>
<text xml:space="preserve" text-anchor="middle" x="735.2" y="-8.35" font-family="fixed" font-size="10.00" fill="#b5e4f4">goal_request:PoseStamped</text>
</g>
<!-- WavefrontFrontierExplorer&#45;&gt;chan_goal_request_PoseStamped -->
<g id="edge21" class="edge">
<title>WavefrontFrontierExplorer&#45;&gt;chan_goal_request_PoseStamped</title>
<path fill="none" stroke="#fff59d" d="M653.68,-56.98C674.05,-45.67 699.87,-31.34 716.93,-21.87"/>
</g>
<!-- SpatialMemory -->
<g id="node6" class="node">
<title>SpatialMemory</title>
<polygon fill="#0b0f0f" stroke="#5c9ff0" points="156.53,-165.45 55.88,-165.45 55.88,-129.45 156.53,-129.45 156.53,-165.45"/>
<text xml:space="preserve" text-anchor="middle" x="106.2" y="-144.67" font-family="fixed" font-size="12.00" fill="#b5e4f4">SpatialMemory</text>
</g>
<!-- ObjectTracking&#45;&gt;SpatialMemory -->
<!-- GO2Connection -->
<g id="node7" class="node">
<title>GO2Connection</title>
<polygon fill="#0b0f0f" stroke="#5c9ff0" points="284.4,-165.45 180,-165.45 180,-129.45 284.4,-129.45 284.4,-165.45"/>
<text xml:space="preserve" text-anchor="middle" x="232.2" y="-144.67" font-family="fixed" font-size="12.00" fill="#b5e4f4">GO2Connection</text>
</g>
<!-- ObjectTracking&#45;&gt;GO2Connection -->
<!-- Map -->
<g id="node8" class="node">
<title>Map</title>
<polygon fill="#0b0f0f" stroke="#5c9ff0" points="284.2,-93.45 230.2,-93.45 230.2,-57.45 284.2,-57.45 284.2,-93.45"/>
<text xml:space="preserve" text-anchor="middle" x="257.2" y="-72.67" font-family="fixed" font-size="12.00" fill="#b5e4f4">Map</text>
</g>
<!-- GO2Connection&#45;&gt;Map -->
<!-- chan_camera_info_CameraInfo -->
<g id="node9" class="node">
<title>chan_camera_info_CameraInfo</title>
<polygon fill="#dce775" fill-opacity="0.207843" stroke="#dce775" points="128.4,-86.17 0,-86.17 0,-64.72 128.4,-64.72 128.4,-86.17"/>
<text xml:space="preserve" text-anchor="middle" x="64.2" y="-73.07" font-family="fixed" font-size="10.00" fill="#b5e4f4">camera_info:CameraInfo</text>
</g>
<!-- GO2Connection&#45;&gt;chan_camera_info_CameraInfo -->
<g id="edge8" class="edge">
<title>GO2Connection&#45;&gt;chan_camera_info_CameraInfo</title>
<path fill="none" stroke="#dce775" d="M190.24,-128.97C158.17,-115.6 115.08,-97.65 88.5,-86.57"/>
</g>
<!-- chan_color_image_Image -->
<g id="node11" class="node">
<title>chan_color_image_Image</title>
<polygon fill="#95e1d3" fill-opacity="0.207843" stroke="#95e1d3" points="277.02,-237.67 173.38,-237.67 173.38,-216.22 277.02,-216.22 277.02,-237.67"/>
<text xml:space="preserve" text-anchor="middle" x="225.2" y="-224.57" font-family="fixed" font-size="10.00" fill="#b5e4f4">color_image:Image</text>
</g>
<!-- GO2Connection&#45;&gt;chan_color_image_Image -->
<g id="edge12" class="edge">
<title>GO2Connection&#45;&gt;chan_color_image_Image</title>
<path fill="none" stroke="#95e1d3" d="M230.64,-165.69C229.25,-181.09 227.26,-203.1 226.12,-215.82"/>
</g>
<!-- chan_lidar_LidarMessage -->
<g id="node15" class="node">
<title>chan_lidar_LidarMessage</title>
<polygon fill="#7986cb" fill-opacity="0.207843" stroke="#7986cb" points="442.27,-158.17 340.12,-158.17 340.12,-136.72 442.27,-136.72 442.27,-158.17"/>
<text xml:space="preserve" text-anchor="middle" x="391.2" y="-145.07" font-family="fixed" font-size="10.00" fill="#b5e4f4">lidar:LidarMessage</text>
</g>
<!-- GO2Connection&#45;&gt;chan_lidar_LidarMessage -->
<g id="edge23" class="edge">
<title>GO2Connection&#45;&gt;chan_lidar_LidarMessage</title>
<path fill="none" stroke="#7986cb" d="M284.68,-147.45C303.13,-147.45 321.58,-147.45 340.02,-147.45"/>
</g>
<!-- chan_global_costmap_OccupancyGrid -->
<g id="node12" class="node">
<title>chan_global_costmap_OccupancyGrid</title>
<polygon fill="#ff8a65" fill-opacity="0.207843" stroke="#ff8a65" points="987.4,-317.18 829,-317.18 829,-295.72 987.4,-295.72 987.4,-317.18"/>
<text xml:space="preserve" text-anchor="middle" x="908.2" y="-304.07" font-family="fixed" font-size="10.00" fill="#b5e4f4">global_costmap:OccupancyGrid</text>
</g>
<!-- Map&#45;&gt;chan_global_costmap_OccupancyGrid -->
<g id="edge15" class="edge">
<title>Map&#45;&gt;chan_global_costmap_OccupancyGrid</title>
<path fill="none" stroke="#ff8a65" d="M284.54,-81.72C305.88,-85.62 336.31,-90.71 363.2,-93.45 398.22,-97.02 971.87,-96.02 996.2,-121.45 1047.85,-175.44 954.58,-265.43 920.19,-295.4"/>
</g>
<!-- chan_local_costmap_OccupancyGrid -->
<g id="node16" class="node">
<title>chan_local_costmap_OccupancyGrid</title>
<polygon fill="#f06292" fill-opacity="0.207843" stroke="#f06292" points="445.65,-237.67 294.75,-237.67 294.75,-216.22 445.65,-216.22 445.65,-237.67"/>
<text xml:space="preserve" text-anchor="middle" x="370.2" y="-224.57" font-family="fixed" font-size="10.00" fill="#b5e4f4">local_costmap:OccupancyGrid</text>
</g>
<!-- Map&#45;&gt;chan_local_costmap_OccupancyGrid -->
<g id="edge25" class="edge">
<title>Map&#45;&gt;chan_local_costmap_OccupancyGrid</title>
<path fill="none" stroke="#f06292" d="M272.55,-93.71C279.34,-101.81 287.14,-111.79 293.2,-121.45 314.01,-154.62 305.28,-171.59 331.2,-200.95 336.42,-206.86 343.35,-211.91 349.93,-215.89"/>
</g>
<!-- chan_camera_info_CameraInfo&#45;&gt;ObjectTracking -->
<g id="edge9" class="edge">
<title>chan_camera_info_CameraInfo&#45;&gt;ObjectTracking</title>
<path fill="none" stroke="#dce775" d="M58.66,-86.49C47.04,-109.05 23.11,-164.57 47.2,-200.95 47.58,-201.53 47.98,-202.1 48.4,-202.65"/>
<polygon fill="#dce775" stroke="#dce775" points="45.68,-204.88 55.25,-209.45 50.62,-199.92 45.68,-204.88"/>
</g>
<!-- chan_cmd_vel_Twist&#45;&gt;GO2Connection -->
<g id="edge11" class="edge">
<title>chan_cmd_vel_Twist&#45;&gt;GO2Connection</title>
<path fill="none" stroke="#4db6ac" d="M385.31,-86.57C359.76,-96.57 319.88,-112.16 287.23,-124.93"/>
<polygon fill="#4db6ac" stroke="#4db6ac" points="286.36,-121.51 278.32,-128.42 288.91,-128.03 286.36,-121.51"/>
</g>
<!-- chan_color_image_Image&#45;&gt;ObjectTracking -->
<g id="edge14" class="edge">
<title>chan_color_image_Image&#45;&gt;ObjectTracking</title>
<path fill="none" stroke="#95e1d3" d="M172.98,-226.95C171.12,-226.95 169.25,-226.95 167.39,-226.95"/>
<polygon fill="#95e1d3" stroke="#95e1d3" points="167.45,-223.45 157.45,-226.95 167.45,-230.45 167.45,-223.45"/>
</g>
<!-- chan_color_image_Image&#45;&gt;SpatialMemory -->
<g id="edge13" class="edge">
<title>chan_color_image_Image&#45;&gt;SpatialMemory</title>
<path fill="none" stroke="#95e1d3" d="M197.71,-215.79C188.07,-211.74 177.37,-206.67 168.2,-200.95 155.58,-193.07 142.84,-182.78 132.21,-173.39"/>
<polygon fill="#95e1d3" stroke="#95e1d3" points="134.71,-170.93 124.95,-166.81 130.01,-176.12 134.71,-170.93"/>
</g>
<!-- chan_global_costmap_OccupancyGrid&#45;&gt;AstarPlanner -->
<g id="edge16" class="edge">
<title>chan_global_costmap_OccupancyGrid&#45;&gt;AstarPlanner</title>
<path fill="none" stroke="#ff8a65" d="M828.56,-306.45C765.48,-306.45 702.4,-306.45 639.31,-306.45"/>
<polygon fill="#ff8a65" stroke="#ff8a65" points="639.46,-302.95 629.46,-306.45 639.46,-309.95 639.46,-302.95"/>
</g>
<!-- chan_global_costmap_OccupancyGrid&#45;&gt;BehaviorTreeNavigator -->
<g id="edge17" class="edge">
<title>chan_global_costmap_OccupancyGrid&#45;&gt;BehaviorTreeNavigator</title>
<path fill="none" stroke="#ff8a65" d="M871.97,-295.24C829.87,-283.38 759.36,-263.51 705.85,-248.42"/>
<polygon fill="#ff8a65" stroke="#ff8a65" points="707.08,-245.13 696.51,-245.79 705.18,-251.87 707.08,-245.13"/>
</g>
<!-- chan_global_costmap_OccupancyGrid&#45;&gt;WavefrontFrontierExplorer -->
<g id="edge18" class="edge">
<title>chan_global_costmap_OccupancyGrid&#45;&gt;WavefrontFrontierExplorer</title>
<path fill="none" stroke="#ff8a65" d="M987.8,-296.86C1006.71,-293.13 1023.17,-287.85 1029.2,-280.45 1073.83,-225.66 1076.34,-174.09 1029.2,-121.45 1008.71,-98.57 830.41,-86.07 716.7,-80.37"/>
<polygon fill="#ff8a65" stroke="#ff8a65" points="716.9,-76.87 706.74,-79.88 716.55,-83.87 716.9,-76.87"/>
</g>
<!-- chan_goal_reached_Bool&#45;&gt;WavefrontFrontierExplorer -->
<g id="edge20" class="edge">
<title>chan_goal_reached_Bool&#45;&gt;WavefrontFrontierExplorer</title>
<path fill="none" stroke="#dce775" d="M749.53,-136.27C728.66,-126.46 696.37,-111.3 669.54,-98.69"/>
<polygon fill="#dce775" stroke="#dce775" points="671.09,-95.55 660.55,-94.47 668.11,-101.89 671.09,-95.55"/>
</g>
<!-- chan_goal_request_PoseStamped&#45;&gt;BehaviorTreeNavigator -->
<g id="edge22" class="edge">
<title>chan_goal_request_PoseStamped&#45;&gt;BehaviorTreeNavigator</title>
<path fill="none" stroke="#fff59d" d="M747.63,-21.74C783.82,-52.05 883.31,-144.18 830.2,-200.95 822.32,-209.37 748.47,-207.81 717.28,-208.83"/>
<polygon fill="#fff59d" stroke="#fff59d" points="717.36,-205.32 707.61,-209.46 717.82,-212.3 717.36,-205.32"/>
</g>
<!-- chan_lidar_LidarMessage&#45;&gt;Map -->
<g id="edge24" class="edge">
<title>chan_lidar_LidarMessage&#45;&gt;Map</title>
<path fill="none" stroke="#7986cb" d="M371.72,-136.27C351.56,-125.74 319.57,-109.03 294.52,-95.95"/>
<polygon fill="#7986cb" stroke="#7986cb" points="296.44,-93 285.95,-91.47 293.2,-99.2 296.44,-93"/>
</g>
<!-- chan_local_costmap_OccupancyGrid&#45;&gt;HolonomicLocalPlanner -->
<g id="edge26" class="edge">
<title>chan_local_costmap_OccupancyGrid&#45;&gt;HolonomicLocalPlanner</title>
<path fill="none" stroke="#f06292" d="M403.33,-215.82C418.01,-211.31 435.48,-205.91 451.2,-200.95 483.78,-190.68 519.94,-179.05 549.92,-169.35"/>
<polygon fill="#f06292" stroke="#f06292" points="550.78,-172.75 559.22,-166.34 548.63,-166.09 550.78,-172.75"/>
</g>
<!-- chan_path_Path&#45;&gt;HolonomicLocalPlanner -->
<g id="edge28" class="edge">
<title>chan_path_Path&#45;&gt;HolonomicLocalPlanner</title>
<path fill="none" stroke="#f06292" d="M509.02,-215.82C526.39,-204.69 554.88,-186.44 577.83,-171.75"/>
<polygon fill="#f06292" stroke="#f06292" points="579.47,-174.85 586,-166.51 575.69,-168.96 579.47,-174.85"/>
</g>
<!-- chan_target_PoseStamped&#45;&gt;AstarPlanner -->
<g id="edge30" class="edge">
<title>chan_target_PoseStamped&#45;&gt;AstarPlanner</title>
<path fill="none" stroke="#ff6b6b" d="M920.41,-158.35C907,-169.39 884.23,-187.46 863.2,-200.95 800.02,-241.47 784.98,-255.46 714.2,-280.45 690.18,-288.93 662.62,-294.74 638.99,-298.6"/>
<polygon fill="#ff6b6b" stroke="#ff6b6b" points="638.58,-295.12 629.24,-300.12 639.65,-302.04 638.58,-295.12"/>
</g>
</g>
</svg>
