<?xml version="1.0" encoding="UTF-8" standalone="no"?>
<!DOCTYPE svg PUBLIC "-//W3C//DTD SVG 1.1//EN"
 "http://www.w3.org/Graphics/SVG/1.1/DTD/svg11.dtd">
<!-- Generated by graphviz version 14.0.4 (0)
 -->
<!-- Title: modules Pages: 1 -->
<svg width="1044pt" height="456pt"
 viewBox="0.00 0.00 1044.00 456.00" xmlns="http://www.w3.org/2000/svg" xmlns:xlink="http://www.w3.org/1999/xlink">
<g id="graph0" class="graph" transform="scale(1 1) rotate(0) translate(4 451.95)">
<title>modules</title>
<g id="clust1" class="cluster">
<title>cluster_navigation</title>
<polygon fill="#aa96da" fill-opacity="0.062745" stroke="#aa96da" stroke-dasharray="5,2" points="273.82,-49.45 273.82,-360.45 455.82,-360.45 455.82,-49.45 273.82,-49.45"/>
<text xml:space="preserve" text-anchor="middle" x="413.32" y="-343.15" font-family="fixed" font-size="14.00" fill="#b5e4f4">navigation</text>
</g>
<g id="clust2" class="cluster">
<title>cluster_perception</title>
<polygon fill="#9575cd" fill-opacity="0.062745" stroke="#9575cd" stroke-dasharray="5,2" points="847.83,-121.45 847.83,-272.95 963.83,-272.95 963.83,-121.45 847.83,-121.45"/>
<text xml:space="preserve" text-anchor="middle" x="920.2" y="-255.65" font-family="fixed" font-size="14.00" fill="#b5e4f4">perception</text>
</g>
<g id="clust3" class="cluster">
<title>cluster_robot</title>
<polygon fill="#64b5f6" fill-opacity="0.062745" stroke="#64b5f6" stroke-dasharray="5,2" points="657.83,-280.95 657.83,-439.95 777.83,-439.95 777.83,-280.95 657.83,-280.95"/>
<text xml:space="preserve" text-anchor="middle" x="752.2" y="-422.65" font-family="fixed" font-size="14.00" fill="#b5e4f4">robot</text>
</g>
<!-- AstarPlanner -->
<g id="node1" class="node">
<title>AstarPlanner</title>
<polygon fill="#0b0f0f" stroke="#5c9ff0" points="427.15,-324.95 338.5,-324.95 338.5,-288.95 427.15,-288.95 427.15,-324.95"/>
<text xml:space="preserve" text-anchor="middle" x="382.82" y="-304.18" font-family="fixed" font-size="12.00" fill="#b5e4f4">AstarPlanner</text>
</g>
<!-- BehaviorTreeNavigator -->
<g id="node2" class="node">
<title>BehaviorTreeNavigator</title>
<polygon fill="#0b0f0f" stroke="#5c9ff0" points="435.27,-237.45 290.38,-237.45 290.38,-201.45 435.27,-201.45 435.27,-237.45"/>
<text xml:space="preserve" text-anchor="middle" x="362.82" y="-216.67" font-family="fixed" font-size="12.00" fill="#b5e4f4">BehaviorTreeNavigator</text>
</g>
<!-- AstarPlanner&#45;&gt;BehaviorTreeNavigator -->
<!-- chan_path_Path -->
<g id="node17" class="node">
<title>chan_path_Path</title>
<polygon fill="#f06292" fill-opacity="0.207843" stroke="#f06292" points="523.52,-230.17 464.12,-230.17 464.12,-208.72 523.52,-208.72 523.52,-230.17"/>
<text xml:space="preserve" text-anchor="middle" x="493.82" y="-217.07" font-family="fixed" font-size="10.00" fill="#b5e4f4">path:Path</text>
</g>
<!-- AstarPlanner&#45;&gt;chan_path_Path -->
<g id="edge25" class="edge">
<title>AstarPlanner&#45;&gt;chan_path_Path</title>
<path fill="none" stroke="#f06292" d="M427.34,-292.11C438.71,-287.23 450.37,-280.92 459.82,-272.95 473.77,-261.19 484.06,-242.26 489.48,-230.63"/>
</g>
<!-- HolonomicLocalPlanner -->
<g id="node3" class="node">
<title>HolonomicLocalPlanner</title>
<polygon fill="#0b0f0f" stroke="#5c9ff0" points="447.9,-165.45 297.75,-165.45 297.75,-129.45 447.9,-129.45 447.9,-165.45"/>
<text xml:space="preserve" text-anchor="middle" x="372.82" y="-144.67" font-family="fixed" font-size="12.00" fill="#b5e4f4">HolonomicLocalPlanner</text>
</g>
<!-- BehaviorTreeNavigator&#45;&gt;HolonomicLocalPlanner -->
<!-- chan_goal_reached_Bool -->
<g id="node13" class="node">
<title>chan_goal_reached_Bool</title>
<polygon fill="#dce775" fill-opacity="0.207843" stroke="#dce775" points="265.77,-158.17 165.88,-158.17 165.88,-136.72 265.77,-136.72 265.77,-158.17"/>
<text xml:space="preserve" text-anchor="middle" x="215.82" y="-145.07" font-family="fixed" font-size="10.00" fill="#b5e4f4">goal_reached:Bool</text>
</g>
<!-- BehaviorTreeNavigator&#45;&gt;chan_goal_reached_Bool -->
<g id="edge17" class="edge">
<title>BehaviorTreeNavigator&#45;&gt;chan_goal_reached_Bool</title>
<path fill="none" stroke="#dce775" d="M326.11,-200.97C298.05,-187.6 260.34,-169.65 237.09,-158.57"/>
</g>
<!-- chan_target_PoseStamped -->
<g id="node18" class="node">
<title>chan_target_PoseStamped</title>
<polygon fill="#ff6b6b" fill-opacity="0.207843" stroke="#ff6b6b" points="109.65,-158.17 0,-158.17 0,-136.72 109.65,-136.72 109.65,-158.17"/>
<text xml:space="preserve" text-anchor="middle" x="54.83" y="-145.07" font-family="fixed" font-size="10.00" fill="#b5e4f4">target:PoseStamped</text>
</g>
<!-- BehaviorTreeNavigator&#45;&gt;chan_target_PoseStamped -->
<g id="edge27" class="edge">
<title>BehaviorTreeNavigator&#45;&gt;chan_target_PoseStamped</title>
<path fill="none" stroke="#ff6b6b" d="M290.03,-202.77C242.63,-192.44 179.48,-178.48 123.83,-165.45 114.58,-163.29 104.65,-160.88 95.29,-158.59"/>
</g>
<!-- WavefrontFrontierExplorer -->
<g id="node4" class="node">
<title>WavefrontFrontierExplorer</title>
<polygon fill="#0b0f0f" stroke="#5c9ff0" points="447.77,-93.45 281.88,-93.45 281.88,-57.45 447.77,-57.45 447.77,-93.45"/>
<text xml:space="preserve" text-anchor="middle" x="364.82" y="-72.67" font-family="fixed" font-size="12.00" fill="#b5e4f4">WavefrontFrontierExplorer</text>
</g>
<!-- HolonomicLocalPlanner&#45;&gt;WavefrontFrontierExplorer -->
<!-- chan_cmd_vel_Twist -->
<g id="node10" class="node">
<title>chan_cmd_vel_Twist</title>
<polygon fill="#4db6ac" fill-opacity="0.207843" stroke="#4db6ac" points="670.9,-86.17 592.75,-86.17 592.75,-64.72 670.9,-64.72 670.9,-86.17"/>
<text xml:space="preserve" text-anchor="middle" x="631.83" y="-73.07" font-family="fixed" font-size="10.00" fill="#b5e4f4">cmd_vel:Twist</text>
</g>
<!-- HolonomicLocalPlanner&#45;&gt;chan_cmd_vel_Twist -->
<g id="edge8" class="edge">
<title>HolonomicLocalPlanner&#45;&gt;chan_cmd_vel_Twist</title>
<path fill="none" stroke="#4db6ac" d="M437.51,-128.97C486.96,-115.6 553.39,-97.65 594.37,-86.57"/>
</g>
<!-- chan_goal_request_PoseStamped -->
<g id="node14" class="node">
<title>chan_goal_request_PoseStamped</title>
<polygon fill="#fff59d" fill-opacity="0.207843" stroke="#fff59d" points="321.4,-21.45 180.25,-21.45 180.25,0 321.4,0 321.4,-21.45"/>
<text xml:space="preserve" text-anchor="middle" x="250.82" y="-8.35" font-family="fixed" font-size="10.00" fill="#b5e4f4">goal_request:PoseStamped</text>
</g>
<!-- WavefrontFrontierExplorer&#45;&gt;chan_goal_request_PoseStamped -->
<g id="edge19" class="edge">
<title>WavefrontFrontierExplorer&#45;&gt;chan_goal_request_PoseStamped</title>
<path fill="none" stroke="#fff59d" d="M333.07,-56.98C312.51,-45.67 286.47,-31.34 269.26,-21.87"/>
</g>
<!-- ObjectTracking -->
<g id="node5" class="node">
<title>ObjectTracking</title>
<polygon fill="#0b0f0f" stroke="#5c9ff0" points="955.4,-237.45 856.25,-237.45 856.25,-201.45 955.4,-201.45 955.4,-237.45"/>
<text xml:space="preserve" text-anchor="middle" x="905.83" y="-216.67" font-family="fixed" font-size="12.00" fill="#b5e4f4">ObjectTracking</text>
</g>
<!-- SpatialMemory -->
<g id="node6" class="node">
<title>SpatialMemory</title>
<polygon fill="#0b0f0f" stroke="#5c9ff0" points="956.15,-165.45 855.5,-165.45 855.5,-129.45 956.15,-129.45 956.15,-165.45"/>
<text xml:space="preserve" text-anchor="middle" x="905.83" y="-144.67" font-family="fixed" font-size="12.00" fill="#b5e4f4">SpatialMemory</text>
</g>
<!-- ObjectTracking&#45;&gt;SpatialMemory -->
<!-- GO2Connection -->
<g id="node7" class="node">
<title>GO2Connection</title>
<polygon fill="#0b0f0f" stroke="#5c9ff0" points="770.03,-404.45 665.62,-404.45 665.62,-368.45 770.03,-368.45 770.03,-404.45"/>
<text xml:space="preserve" text-anchor="middle" x="717.83" y="-383.68" font-family="fixed" font-size="12.00" fill="#b5e4f4">GO2Connection</text>
</g>
<!-- Map -->
<g id="node8" class="node">
<title>Map</title>
<polygon fill="#0b0f0f" stroke="#5c9ff0" points="719.83,-324.95 665.83,-324.95 665.83,-288.95 719.83,-288.95 719.83,-324.95"/>
<text xml:space="preserve" text-anchor="middle" x="692.83" y="-304.18" font-family="fixed" font-size="12.00" fill="#b5e4f4">Map</text>
</g>
<!-- GO2Connection&#45;&gt;Map -->
<!-- chan_camera_info_CameraInfo -->
<g id="node9" class="node">
<title>chan_camera_info_CameraInfo</title>
<polygon fill="#dce775" fill-opacity="0.207843" stroke="#dce775" points="914.03,-317.68 785.62,-317.68 785.62,-296.22 914.03,-296.22 914.03,-317.68"/>
<text xml:space="preserve" text-anchor="middle" x="849.83" y="-304.57" font-family="fixed" font-size="10.00" fill="#b5e4f4">camera_info:CameraInfo</text>
</g>
<!-- GO2Connection&#45;&gt;chan_camera_info_CameraInfo -->
<g id="edge6" class="edge">
<title>GO2Connection&#45;&gt;chan_camera_info_CameraInfo</title>
<path fill="none" stroke="#dce775" d="M766.73,-368.04C771.92,-365.69 777.05,-363.15 781.83,-360.45 803.63,-348.11 826.1,-329.36 838.97,-317.92"/>
</g>
<!-- chan_color_image_Image -->
<g id="node11" class="node">
<title>chan_color_image_Image</title>
<polygon fill="#95e1d3" fill-opacity="0.207843" stroke="#95e1d3" points="1035.65,-317.68 932,-317.68 932,-296.22 1035.65,-296.22 1035.65,-317.68"/>
<text xml:space="preserve" text-anchor="middle" x="983.83" y="-304.57" font-family="fixed" font-size="10.00" fill="#b5e4f4">color_image:Image</text>
</g>
<!-- GO2Connection&#45;&gt;chan_color_image_Image -->
<g id="edge10" class="edge">
<title>GO2Connection&#45;&gt;chan_color_image_Image</title>
<path fill="none" stroke="#95e1d3" d="M770.18,-382.53C821.69,-379.04 896.34,-372.15 922.83,-360.45 944.81,-350.74 964.79,-330.38 975.53,-318.06"/>
</g>
<!-- chan_lidar_LidarMessage -->
<g id="node15" class="node">
<title>chan_lidar_LidarMessage</title>
<polygon fill="#7986cb" fill-opacity="0.207843" stroke="#7986cb" points="647.9,-397.18 545.75,-397.18 545.75,-375.72 647.9,-375.72 647.9,-397.18"/>
<text xml:space="preserve" text-anchor="middle" x="596.83" y="-384.07" font-family="fixed" font-size="10.00" fill="#b5e4f4">lidar:LidarMessage</text>
</g>
<!-- GO2Connection&#45;&gt;chan_lidar_LidarMessage -->
<g id="edge21" class="edge">
<title>GO2Connection&#45;&gt;chan_lidar_LidarMessage</title>
<path fill="none" stroke="#7986cb" d="M665.17,-386.45C659.56,-386.45 653.95,-386.45 648.34,-386.45"/>
</g>
<!-- chan_global_costmap_OccupancyGrid -->
<g id="node12" class="node">
<title>chan_global_costmap_OccupancyGrid</title>
<polygon fill="#ff8a65" fill-opacity="0.207843" stroke="#ff8a65" points="627.03,-317.68 468.63,-317.68 468.63,-296.22 627.03,-296.22 627.03,-317.68"/>
<text xml:space="preserve" text-anchor="middle" x="547.83" y="-304.57" font-family="fixed" font-size="10.00" fill="#b5e4f4">global_costmap:OccupancyGrid</text>
</g>
<!-- Map&#45;&gt;chan_global_costmap_OccupancyGrid -->
<g id="edge13" class="edge">
<title>Map&#45;&gt;chan_global_costmap_OccupancyGrid</title>
<path fill="none" stroke="#ff8a65" d="M665.48,-306.95C652.79,-306.95 640.1,-306.95 627.41,-306.95"/>
</g>
<!-- chan_local_costmap_OccupancyGrid -->
<g id="node16" class="node">
<title>chan_local_costmap_OccupancyGrid</title>
<polygon fill="#f06292" fill-opacity="0.207843" stroke="#f06292" points="730.28,-230.17 579.38,-230.17 579.38,-208.72 730.28,-208.72 730.28,-230.17"/>
<text xml:space="preserve" text-anchor="middle" x="654.83" y="-217.07" font-family="fixed" font-size="10.00" fill="#b5e4f4">local_costmap:OccupancyGrid</text>
</g>
<!-- Map&#45;&gt;chan_local_costmap_OccupancyGrid -->
<g id="edge23" class="edge">
<title>Map&#45;&gt;chan_local_costmap_OccupancyGrid</title>
<path fill="none" stroke="#f06292" d="M685.14,-288.65C677.33,-271.08 665.51,-244.5 659.19,-230.27"/>
</g>
<!-- chan_camera_info_CameraInfo&#45;&gt;ObjectTracking -->
<g id="edge7" class="edge">
<title>chan_camera_info_CameraInfo&#45;&gt;ObjectTracking</title>
<path fill="none" stroke="#dce775" d="M856.47,-295.81C864.32,-283.83 877.67,-263.43 888.51,-246.88"/>
<polygon fill="#dce775" stroke="#dce775" points="891.16,-249.22 893.72,-238.94 885.31,-245.39 891.16,-249.22"/>
</g>
<!-- chan_cmd_vel_Twist&#45;&gt;GO2Connection -->
<g id="edge9" class="edge">
<title>chan_cmd_vel_Twist&#45;&gt;GO2Connection</title>
<path fill="none" stroke="#4db6ac" d="M645.36,-86.64C669.66,-105.88 719.91,-150.27 738.83,-201.45 762.17,-264.62 748.78,-289.63 729.26,-357.42"/>
<polygon fill="#4db6ac" stroke="#4db6ac" points="725.97,-356.18 726.62,-366.75 732.71,-358.08 725.97,-356.18"/>
</g>
<!-- chan_color_image_Image&#45;&gt;ObjectTracking -->
<g id="edge12" class="edge">
<title>chan_color_image_Image&#45;&gt;ObjectTracking</title>
<path fill="none" stroke="#95e1d3" d="M974.57,-295.81C963.44,-283.6 944.34,-262.67 929.09,-245.96"/>
<polygon fill="#95e1d3" stroke="#95e1d3" points="931.88,-243.82 922.56,-238.79 926.71,-248.54 931.88,-243.82"/>
</g>
<!-- chan_color_image_Image&#45;&gt;SpatialMemory -->
<g id="edge11" class="edge">
<title>chan_color_image_Image&#45;&gt;SpatialMemory</title>
<path fill="none" stroke="#95e1d3" d="M984.09,-296.03C984.19,-276.59 982.27,-232.68 964.83,-201.45 958.87,-190.79 949.97,-181.16 940.86,-173.12"/>
<polygon fill="#95e1d3" stroke="#95e1d3" points="943.27,-170.57 933.34,-166.88 938.8,-175.96 943.27,-170.57"/>
</g>
<!-- chan_global_costmap_OccupancyGrid&#45;&gt;AstarPlanner -->
<g id="edge14" class="edge">
<title>chan_global_costmap_OccupancyGrid&#45;&gt;AstarPlanner</title>
<path fill="none" stroke="#ff8a65" d="M468.47,-306.95C458.68,-306.95 448.9,-306.95 439.11,-306.95"/>
<polygon fill="#ff8a65" stroke="#ff8a65" points="439.13,-303.45 429.13,-306.95 439.13,-310.45 439.13,-303.45"/>
</g>
<!-- chan_global_costmap_OccupancyGrid&#45;&gt;BehaviorTreeNavigator -->
<g id="edge15" class="edge">
<title>chan_global_costmap_OccupancyGrid&#45;&gt;BehaviorTreeNavigator</title>
<path fill="none" stroke="#ff8a65" d="M514.55,-295.74C496.56,-289.82 474.14,-281.8 454.82,-272.95 436.27,-264.45 416.52,-253.45 400.09,-243.72"/>
<polygon fill="#ff8a65" stroke="#ff8a65" points="402,-240.79 391.63,-238.64 398.4,-246.79 402,-240.79"/>
</g>
<!-- chan_global_costmap_OccupancyGrid&#45;&gt;WavefrontFrontierExplorer -->
<g id="edge16" class="edge">
<title>chan_global_costmap_OccupancyGrid&#45;&gt;WavefrontFrontierExplorer</title>
<path fill="none" stroke="#ff8a65" d="M548.35,-295.86C548.94,-276.51 548.25,-233.28 532.83,-201.45 511.44,-157.31 496.37,-150.46 456.82,-121.45 445.17,-112.9 431.65,-105.25 418.61,-98.78"/>
<polygon fill="#ff8a65" stroke="#ff8a65" points="420.2,-95.66 409.67,-94.5 417.18,-101.97 420.2,-95.66"/>
</g>
<!-- chan_goal_reached_Bool&#45;&gt;WavefrontFrontierExplorer -->
<g id="edge18" class="edge">
<title>chan_goal_reached_Bool&#45;&gt;WavefrontFrontierExplorer</title>
<path fill="none" stroke="#dce775" d="M237.49,-136.27C258.37,-126.46 290.65,-111.3 317.49,-98.69"/>
<polygon fill="#dce775" stroke="#dce775" points="318.91,-101.89 326.47,-94.47 315.94,-95.55 318.91,-101.89"/>
</g>
<!-- chan_goal_request_PoseStamped&#45;&gt;BehaviorTreeNavigator -->
<g id="edge20" class="edge">
<title>chan_goal_request_PoseStamped&#45;&gt;BehaviorTreeNavigator</title>
<path fill="none" stroke="#fff59d" d="M235.93,-21.93C200.63,-47.34 117.72,-115.02 156.82,-165.45 172.13,-185.19 228.78,-198.87 278.8,-207.38"/>
<polygon fill="#fff59d" stroke="#fff59d" points="278.09,-210.81 288.52,-208.97 279.22,-203.9 278.09,-210.81"/>
</g>
<!-- chan_lidar_LidarMessage&#45;&gt;Map -->
<g id="edge22" class="edge">
<title>chan_lidar_LidarMessage&#45;&gt;Map</title>
<path fill="none" stroke="#7986cb" d="M613.96,-375.36C620.93,-371.03 628.95,-365.76 635.83,-360.45 646.59,-352.14 657.74,-342.21 667.29,-333.24"/>
<polygon fill="#7986cb" stroke="#7986cb" points="669.65,-335.82 674.46,-326.38 664.82,-330.76 669.65,-335.82"/>
</g>
<!-- chan_local_costmap_OccupancyGrid&#45;&gt;HolonomicLocalPlanner -->
<g id="edge24" class="edge">
<title>chan_local_costmap_OccupancyGrid&#45;&gt;HolonomicLocalPlanner</title>
<path fill="none" stroke="#f06292" d="M613.82,-208.27C572.11,-197.92 506.33,-181.59 454.03,-168.61"/>
<polygon fill="#f06292" stroke="#f06292" points="455.11,-165.27 444.56,-166.26 453.42,-172.06 455.11,-165.27"/>
</g>
<!-- chan_path_Path&#45;&gt;HolonomicLocalPlanner -->
<g id="edge26" class="edge">
<title>chan_path_Path&#45;&gt;HolonomicLocalPlanner</title>
<path fill="none" stroke="#f06292" d="M476.23,-208.27C459.59,-198.65 434.04,-183.86 412.5,-171.4"/>
<polygon fill="#f06292" stroke="#f06292" points="414.34,-168.42 403.93,-166.44 410.83,-174.48 414.34,-168.42"/>
</g>
<!-- chan_target_PoseStamped&#45;&gt;AstarPlanner -->
<g id="edge28" class="edge">
<title>chan_target_PoseStamped&#45;&gt;AstarPlanner</title>
<path fill="none" stroke="#ff6b6b" d="M70.82,-158.59C107.19,-181.33 199.33,-237.22 281.82,-272.95 296.33,-279.23 312.44,-285.01 327.46,-289.91"/>
<polygon fill="#ff6b6b" stroke="#ff6b6b" points="326.13,-293.16 336.72,-292.86 328.26,-286.49 326.13,-293.16"/>
</g>
</g>
</svg>
