<?xml version="1.0" encoding="UTF-8" standalone="no"?>
<!DOCTYPE svg PUBLIC "-//W3C//DTD SVG 1.1//EN"
 "http://www.w3.org/Graphics/SVG/1.1/DTD/svg11.dtd">
<!-- Generated by graphviz version 14.0.4 (0)
 -->
<!-- Title: modules Pages: 1 -->
<svg width="1000pt" height="341pt"
 viewBox="0.00 0.00 1000.00 341.00" xmlns="http://www.w3.org/2000/svg" xmlns:xlink="http://www.w3.org/1999/xlink">
<g id="graph0" class="graph" transform="scale(1 1) rotate(0) translate(4 337.4)">
<title>modules</title>
<g id="clust1" class="cluster">
<title>cluster_navigation</title>
<polygon fill="#aa96da" fill-opacity="0.062745" stroke="#aa96da" stroke-dasharray="5,2" points="310.2,-224.45 310.2,-303.95 929.2,-303.95 929.2,-224.45 310.2,-224.45"/>
<text xml:space="preserve" text-anchor="middle" x="886.7" y="-286.65" font-family="fixed" font-size="14.00" fill="#b5e4f4">navigation</text>
</g>
<g id="clust2" class="cluster">
<title>cluster_perception</title>
<polygon fill="#9575cd" fill-opacity="0.062745" stroke="#9575cd" stroke-dasharray="5,2" points="72.2,-136.95 72.2,-216.45 306.2,-216.45 306.2,-136.95 72.2,-136.95"/>
<text xml:space="preserve" text-anchor="middle" x="262.57" y="-199.15" font-family="fixed" font-size="14.00" fill="#b5e4f4">perception</text>
</g>
<g id="clust3" class="cluster">
<title>cluster_robot</title>
<polygon fill="#64b5f6" fill-opacity="0.062745" stroke="#64b5f6" stroke-dasharray="5,2" points="188.2,-49.45 188.2,-128.95 380.2,-128.95 380.2,-49.45 188.2,-49.45"/>
<text xml:space="preserve" text-anchor="middle" x="354.57" y="-111.65" font-family="fixed" font-size="14.00" fill="#b5e4f4">robot</text>
</g>
<!-- AstarPlanner -->
<g id="node1" class="node">
<title>AstarPlanner</title>
<polygon fill="#0b0f0f" stroke="#5c9ff0" points="574.53,-268.45 485.88,-268.45 485.88,-232.45 574.53,-232.45 574.53,-268.45"/>
<text xml:space="preserve" text-anchor="middle" x="530.2" y="-247.67" font-family="fixed" font-size="12.00" fill="#b5e4f4">AstarPlanner</text>
</g>
<!-- ObjectTracking -->
<g id="node5" class="node">
<title>ObjectTracking</title>
<polygon fill="#0b0f0f" stroke="#5c9ff0" points="297.77,-180.95 198.62,-180.95 198.62,-144.95 297.77,-144.95 297.77,-180.95"/>
<text xml:space="preserve" text-anchor="middle" x="248.2" y="-160.17" font-family="fixed" font-size="12.00" fill="#b5e4f4">ObjectTracking</text>
</g>
<!-- AstarPlanner&#45;&gt;ObjectTracking -->
<!-- chan_path_Path -->
<g id="node17" class="node">
<title>chan_path_Path</title>
<polygon fill="#f06292" fill-opacity="0.207843" stroke="#f06292" points="585.9,-173.67 526.5,-173.67 526.5,-152.22 585.9,-152.22 585.9,-173.67"/>
<text xml:space="preserve" text-anchor="middle" x="556.2" y="-160.57" font-family="fixed" font-size="10.00" fill="#b5e4f4">path:Path</text>
</g>
<!-- AstarPlanner&#45;&gt;chan_path_Path -->
<g id="edge22" class="edge">
<title>AstarPlanner&#45;&gt;chan_path_Path</title>
<path fill="none" stroke="#f06292" d="M535.46,-232.15C540.8,-214.58 548.89,-188 553.21,-173.77"/>
</g>
<!-- BehaviorTreeNavigator -->
<g id="node2" class="node">
<title>BehaviorTreeNavigator</title>
<polygon fill="#0b0f0f" stroke="#5c9ff0" points="737.65,-268.45 592.75,-268.45 592.75,-232.45 737.65,-232.45 737.65,-268.45"/>
<text xml:space="preserve" text-anchor="middle" x="665.2" y="-247.67" font-family="fixed" font-size="12.00" fill="#b5e4f4">BehaviorTreeNavigator</text>
</g>
<!-- chan_goal_reached_Bool -->
<g id="node13" class="node">
<title>chan_goal_reached_Bool</title>
<polygon fill="#dce775" fill-opacity="0.207843" stroke="#dce775" points="832.15,-173.67 732.25,-173.67 732.25,-152.22 832.15,-152.22 832.15,-173.67"/>
<text xml:space="preserve" text-anchor="middle" x="782.2" y="-160.57" font-family="fixed" font-size="10.00" fill="#b5e4f4">goal_reached:Bool</text>
</g>
<!-- BehaviorTreeNavigator&#45;&gt;chan_goal_reached_Bool -->
<g id="edge14" class="edge">
<title>BehaviorTreeNavigator&#45;&gt;chan_goal_reached_Bool</title>
<path fill="none" stroke="#dce775" d="M698.46,-232.11C706.76,-227.36 715.48,-221.99 723.2,-216.45 741.69,-203.18 761.01,-185.05 772.31,-173.94"/>
</g>
<!-- chan_target_PoseStamped -->
<g id="node18" class="node">
<title>chan_target_PoseStamped</title>
<polygon fill="#ff6b6b" fill-opacity="0.207843" stroke="#ff6b6b" points="714.03,-173.67 604.38,-173.67 604.38,-152.22 714.03,-152.22 714.03,-173.67"/>
<text xml:space="preserve" text-anchor="middle" x="659.2" y="-160.57" font-family="fixed" font-size="10.00" fill="#b5e4f4">target:PoseStamped</text>
</g>
<!-- BehaviorTreeNavigator&#45;&gt;chan_target_PoseStamped -->
<g id="edge24" class="edge">
<title>BehaviorTreeNavigator&#45;&gt;chan_target_PoseStamped</title>
<path fill="none" stroke="#ff6b6b" d="M663.99,-232.15C662.75,-214.58 660.89,-188 659.89,-173.77"/>
</g>
<!-- HolonomicLocalPlanner -->
<g id="node3" class="node">
<title>HolonomicLocalPlanner</title>
<polygon fill="#0b0f0f" stroke="#5c9ff0" points="468.27,-268.45 318.12,-268.45 318.12,-232.45 468.27,-232.45 468.27,-268.45"/>
<text xml:space="preserve" text-anchor="middle" x="393.2" y="-247.67" font-family="fixed" font-size="12.00" fill="#b5e4f4">HolonomicLocalPlanner</text>
</g>
<!-- chan_cmd_vel_Twist -->
<g id="node10" class="node">
<title>chan_cmd_vel_Twist</title>
<polygon fill="#4db6ac" fill-opacity="0.207843" stroke="#4db6ac" points="432.27,-173.67 354.12,-173.67 354.12,-152.22 432.27,-152.22 432.27,-173.67"/>
<text xml:space="preserve" text-anchor="middle" x="393.2" y="-160.57" font-family="fixed" font-size="10.00" fill="#b5e4f4">cmd_vel:Twist</text>
</g>
<!-- HolonomicLocalPlanner&#45;&gt;chan_cmd_vel_Twist -->
<g id="edge5" class="edge">
<title>HolonomicLocalPlanner&#45;&gt;chan_cmd_vel_Twist</title>
<path fill="none" stroke="#4db6ac" d="M393.2,-232.15C393.2,-214.58 393.2,-188 393.2,-173.77"/>
</g>
<!-- WavefrontFrontierExplorer -->
<g id="node4" class="node">
<title>WavefrontFrontierExplorer</title>
<polygon fill="#0b0f0f" stroke="#5c9ff0" points="921.15,-268.45 755.25,-268.45 755.25,-232.45 921.15,-232.45 921.15,-268.45"/>
<text xml:space="preserve" text-anchor="middle" x="838.2" y="-247.67" font-family="fixed" font-size="12.00" fill="#b5e4f4">WavefrontFrontierExplorer</text>
</g>
<!-- chan_goal_request_PoseStamped -->
<g id="node14" class="node">
<title>chan_goal_request_PoseStamped</title>
<polygon fill="#fff59d" fill-opacity="0.207843" stroke="#fff59d" points="991.78,-173.67 850.62,-173.67 850.62,-152.22 991.78,-152.22 991.78,-173.67"/>
<text xml:space="preserve" text-anchor="middle" x="921.2" y="-160.57" font-family="fixed" font-size="10.00" fill="#b5e4f4">goal_request:PoseStamped</text>
</g>
<!-- WavefrontFrontierExplorer&#45;&gt;chan_goal_request_PoseStamped -->
<g id="edge16" class="edge">
<title>WavefrontFrontierExplorer&#45;&gt;chan_goal_request_PoseStamped</title>
<path fill="none" stroke="#fff59d" d="M855,-232.15C872.05,-214.58 897.85,-188 911.67,-173.77"/>
</g>
<!-- GO2Connection -->
<g id="node7" class="node">
<title>GO2Connection</title>
<polygon fill="#0b0f0f" stroke="#5c9ff0" points="300.4,-93.45 196,-93.45 196,-57.45 300.4,-57.45 300.4,-93.45"/>
<text xml:space="preserve" text-anchor="middle" x="248.2" y="-72.67" font-family="fixed" font-size="12.00" fill="#b5e4f4">GO2Connection</text>
</g>
<!-- ObjectTracking&#45;&gt;GO2Connection -->
<!-- SpatialMemory -->
<g id="node6" class="node">
<title>SpatialMemory</title>
<polygon fill="#0b0f0f" stroke="#5c9ff0" points="180.52,-180.95 79.87,-180.95 79.87,-144.95 180.52,-144.95 180.52,-180.95"/>
<text xml:space="preserve" text-anchor="middle" x="130.2" y="-160.17" font-family="fixed" font-size="12.00" fill="#b5e4f4">SpatialMemory</text>
</g>
<!-- chan_camera_info_CameraInfo -->
<g id="node9" class="node">
<title>chan_camera_info_CameraInfo</title>
<polygon fill="#dce775" fill-opacity="0.207843" stroke="#dce775" points="128.4,-261.18 0,-261.18 0,-239.72 128.4,-239.72 128.4,-261.18"/>
<text xml:space="preserve" text-anchor="middle" x="64.2" y="-248.07" font-family="fixed" font-size="10.00" fill="#b5e4f4">camera_info:CameraInfo</text>
</g>
<!-- GO2Connection&#45;&gt;chan_camera_info_CameraInfo -->
<g id="edge3" class="edge">
<title>GO2Connection&#45;&gt;chan_camera_info_CameraInfo</title>
<path fill="none" stroke="#dce775" d="M195.55,-78.69C153.73,-83.54 97.58,-97.58 68.2,-136.95 45.06,-167.96 55.32,-218.3 61.16,-239.52"/>
</g>
<!-- chan_color_image_Image -->
<g id="node11" class="node">
<title>chan_color_image_Image</title>
<polygon fill="#95e1d3" fill-opacity="0.207843" stroke="#95e1d3" points="262.02,-261.18 158.38,-261.18 158.38,-239.72 262.02,-239.72 262.02,-261.18"/>
<text xml:space="preserve" text-anchor="middle" x="210.2" y="-248.07" font-family="fixed" font-size="10.00" fill="#b5e4f4">color_image:Image</text>
</g>
<!-- GO2Connection&#45;&gt;chan_color_image_Image -->
<g id="edge7" class="edge">
<title>GO2Connection&#45;&gt;chan_color_image_Image</title>
<path fill="none" stroke="#95e1d3" d="M274.23,-93.9C287.71,-104.56 302.84,-119.49 310.2,-136.95 323.92,-169.51 332.14,-188.75 310.2,-216.45 300.56,-228.62 291.05,-219.91 276.2,-224.45 262.26,-228.71 247.01,-234.41 234.69,-239.3"/>
</g>
<!-- chan_lidar_LidarMessage -->
<g id="node15" class="node">
<title>chan_lidar_LidarMessage</title>
<polygon fill="#7986cb" fill-opacity="0.207843" stroke="#7986cb" points="347.27,-21.45 245.12,-21.45 245.12,0 347.27,0 347.27,-21.45"/>
<text xml:space="preserve" text-anchor="middle" x="296.2" y="-8.35" font-family="fixed" font-size="10.00" fill="#b5e4f4">lidar:LidarMessage</text>
</g>
<!-- GO2Connection&#45;&gt;chan_lidar_LidarMessage -->
<g id="edge18" class="edge">
<title>GO2Connection&#45;&gt;chan_lidar_LidarMessage</title>
<path fill="none" stroke="#7986cb" d="M261.57,-56.98C270.23,-45.67 281.19,-31.34 288.44,-21.87"/>
</g>
<!-- Map -->
<g id="node8" class="node">
<title>Map</title>
<polygon fill="#0b0f0f" stroke="#5c9ff0" points="372.2,-93.45 318.2,-93.45 318.2,-57.45 372.2,-57.45 372.2,-93.45"/>
<text xml:space="preserve" text-anchor="middle" x="345.2" y="-72.67" font-family="fixed" font-size="12.00" fill="#b5e4f4">Map</text>
</g>
<!-- chan_global_costmap_OccupancyGrid -->
<g id="node12" class="node">
<title>chan_global_costmap_OccupancyGrid</title>
<polygon fill="#ff8a65" fill-opacity="0.207843" stroke="#ff8a65" points="676.4,-333.4 518,-333.4 518,-311.95 676.4,-311.95 676.4,-333.4"/>
<text xml:space="preserve" text-anchor="middle" x="597.2" y="-320.3" font-family="fixed" font-size="10.00" fill="#b5e4f4">global_costmap:OccupancyGrid</text>
</g>
<!-- Map&#45;&gt;chan_global_costmap_OccupancyGrid -->
<g id="edge10" class="edge">
<title>Map&#45;&gt;chan_global_costmap_OccupancyGrid</title>
<path fill="none" stroke="#ff8a65" d="M372.7,-85.31C395.6,-94.32 426.73,-110.73 441.2,-136.95 458.27,-167.89 465.43,-190.74 441.2,-216.45 420.59,-238.32 326.81,-202.58 306.2,-224.45 281.97,-250.16 281.99,-278.22 306.2,-303.95 320.46,-319.11 436.55,-322.11 517.72,-322.31"/>
</g>
<!-- chan_local_costmap_OccupancyGrid -->
<g id="node16" class="node">
<title>chan_local_costmap_OccupancyGrid</title>
<polygon fill="#f06292" fill-opacity="0.207843" stroke="#f06292" points="544.65,-21.45 393.75,-21.45 393.75,0 544.65,0 544.65,-21.45"/>
<text xml:space="preserve" text-anchor="middle" x="469.2" y="-8.35" font-family="fixed" font-size="10.00" fill="#b5e4f4">local_costmap:OccupancyGrid</text>
</g>
<!-- Map&#45;&gt;chan_local_costmap_OccupancyGrid -->
<g id="edge20" class="edge">
<title>Map&#45;&gt;chan_local_costmap_OccupancyGrid</title>
<path fill="none" stroke="#f06292" d="M372.41,-60.68C395.65,-48.93 428.54,-32.29 449.36,-21.76"/>
</g>
<!-- chan_camera_info_CameraInfo&#45;&gt;ObjectTracking -->
<g id="edge4" class="edge">
<title>chan_camera_info_CameraInfo&#45;&gt;ObjectTracking</title>
<path fill="none" stroke="#dce775" d="M96.31,-239.28C112.14,-234.45 131.58,-228.79 149.2,-224.45 166.8,-220.11 172.97,-224.54 189.2,-216.45 202.62,-209.76 215.35,-199.21 225.52,-189.31"/>
<polygon fill="#dce775" stroke="#dce775" points="227.86,-191.92 232.36,-182.33 222.86,-187.02 227.86,-191.92"/>
</g>
<!-- chan_cmd_vel_Twist&#45;&gt;GO2Connection -->
<g id="edge6" class="edge">
<title>chan_cmd_vel_Twist&#45;&gt;GO2Connection</title>
<path fill="none" stroke="#4db6ac" d="M373.94,-151.79C364.05,-146.85 351.68,-141.1 340.2,-136.95 326.82,-132.12 321.81,-135.54 309.2,-128.95 295.85,-121.97 282.92,-111.56 272.44,-101.84"/>
<polygon fill="#4db6ac" stroke="#4db6ac" points="274.96,-99.41 265.33,-94.99 270.1,-104.45 274.96,-99.41"/>
</g>
<!-- chan_color_image_Image&#45;&gt;ObjectTracking -->
<g id="edge9" class="edge">
<title>chan_color_image_Image&#45;&gt;ObjectTracking</title>
<path fill="none" stroke="#95e1d3" d="M214.71,-239.31C219.93,-227.55 228.76,-207.69 236.04,-191.31"/>
<polygon fill="#95e1d3" stroke="#95e1d3" points="239.07,-193.11 239.93,-182.55 232.67,-190.27 239.07,-193.11"/>
</g>
<!-- chan_color_image_Image&#45;&gt;SpatialMemory -->
<g id="edge8" class="edge">
<title>chan_color_image_Image&#45;&gt;SpatialMemory</title>
<path fill="none" stroke="#95e1d3" d="M200.71,-239.31C189.29,-227.1 169.7,-206.17 154.07,-189.46"/>
<polygon fill="#95e1d3" stroke="#95e1d3" points="156.74,-187.19 147.35,-182.28 151.62,-191.97 156.74,-187.19"/>
</g>
<!-- chan_global_costmap_OccupancyGrid&#45;&gt;AstarPlanner -->
<g id="edge11" class="edge">
<title>chan_global_costmap_OccupancyGrid&#45;&gt;AstarPlanner</title>
<path fill="none" stroke="#ff8a65" d="M587.6,-311.61C578.96,-302.55 565.88,-288.85 554.4,-276.81"/>
<polygon fill="#ff8a65" stroke="#ff8a65" points="557.25,-274.73 547.82,-269.91 552.19,-279.57 557.25,-274.73"/>
</g>
<!-- chan_global_costmap_OccupancyGrid&#45;&gt;BehaviorTreeNavigator -->
<g id="edge12" class="edge">
<title>chan_global_costmap_OccupancyGrid&#45;&gt;BehaviorTreeNavigator</title>
<path fill="none" stroke="#ff8a65" d="M606.94,-311.61C615.72,-302.55 628.98,-288.85 640.64,-276.81"/>
<polygon fill="#ff8a65" stroke="#ff8a65" points="642.89,-279.52 647.33,-269.91 637.86,-274.66 642.89,-279.52"/>
</g>
<!-- chan_global_costmap_OccupancyGrid&#45;&gt;WavefrontFrontierExplorer -->
<g id="edge13" class="edge">
<title>chan_global_costmap_OccupancyGrid&#45;&gt;WavefrontFrontierExplorer</title>
<path fill="none" stroke="#ff8a65" d="M676.58,-318.16C699.46,-315.56 724.18,-311.21 746.2,-303.95 766.79,-297.16 787.92,-285.5 804.73,-274.88"/>
<polygon fill="#ff8a65" stroke="#ff8a65" points="806.34,-278.01 812.82,-269.62 802.53,-272.14 806.34,-278.01"/>
</g>
<!-- chan_goal_reached_Bool&#45;&gt;WavefrontFrontierExplorer -->
<g id="edge15" class="edge">
<title>chan_goal_reached_Bool&#45;&gt;WavefrontFrontierExplorer</title>
<path fill="none" stroke="#dce775" d="M788.63,-173.77C796.42,-185.67 809.87,-206.19 820.79,-222.87"/>
<polygon fill="#dce775" stroke="#dce775" points="817.63,-224.43 826.04,-230.88 823.49,-220.6 817.63,-224.43"/>
</g>
<!-- chan_goal_request_PoseStamped&#45;&gt;BehaviorTreeNavigator -->
<g id="edge17" class="edge">
<title>chan_goal_request_PoseStamped&#45;&gt;BehaviorTreeNavigator</title>
<path fill="none" stroke="#fff59d" d="M909.99,-173.97C895.35,-186.39 868.37,-207.07 841.2,-216.45 801.15,-230.28 787.8,-216.38 746.2,-224.45 739.81,-225.69 733.22,-227.25 726.68,-228.97"/>
<polygon fill="#fff59d" stroke="#fff59d" points="725.91,-225.55 717.22,-231.61 727.79,-232.3 725.91,-225.55"/>
</g>
<!-- chan_lidar_LidarMessage&#45;&gt;Map -->
<g id="edge19" class="edge">
<title>chan_lidar_LidarMessage&#45;&gt;Map</title>
<path fill="none" stroke="#7986cb" d="M304.12,-21.87C309.67,-28.97 317.36,-38.81 324.58,-48.05"/>
<polygon fill="#7986cb" stroke="#7986cb" points="321.7,-50.06 330.62,-55.78 327.22,-45.75 321.7,-50.06"/>
</g>
<!-- chan_local_costmap_OccupancyGrid&#45;&gt;HolonomicLocalPlanner -->
<g id="edge21" class="edge">
<title>chan_local_costmap_OccupancyGrid&#45;&gt;HolonomicLocalPlanner</title>
<path fill="none" stroke="#f06292" d="M473.15,-21.79C484.93,-53.61 516.46,-153.61 474.2,-216.45 472.08,-219.6 469.6,-222.45 466.86,-225.03"/>
<polygon fill="#f06292" stroke="#f06292" points="464.86,-222.15 459.1,-231.05 469.15,-227.68 464.86,-222.15"/>
</g>
<!-- chan_path_Path&#45;&gt;HolonomicLocalPlanner -->
<g id="edge23" class="edge">
<title>chan_path_Path&#45;&gt;HolonomicLocalPlanner</title>
<path fill="none" stroke="#f06292" d="M550.48,-174.17C543.19,-186.21 529.45,-205.9 512.2,-216.45 498.59,-224.78 492.63,-220.39 477.2,-224.45 471.82,-225.86 466.26,-227.38 460.69,-228.95"/>
<polygon fill="#f06292" stroke="#f06292" points="460.1,-225.48 451.45,-231.59 462.03,-232.21 460.1,-225.48"/>
</g>
<!-- chan_target_PoseStamped&#45;&gt;AstarPlanner -->
<g id="edge25" class="edge">
<title>chan_target_PoseStamped&#45;&gt;AstarPlanner</title>
<path fill="none" stroke="#ff6b6b" d="M648.44,-174.02C636.16,-185.21 615.18,-203.41 595.2,-216.45 589.77,-220 583.91,-223.44 578.01,-226.69"/>
<polygon fill="#ff6b6b" stroke="#ff6b6b" points="576.63,-223.46 569.44,-231.24 579.91,-229.64 576.63,-223.46"/>
</g>
</g>
</svg>
