<?xml version="1.0" encoding="UTF-8" standalone="no"?>
<!DOCTYPE svg PUBLIC "-//W3C//DTD SVG 1.1//EN"
 "http://www.w3.org/Graphics/SVG/1.1/DTD/svg11.dtd">
<!-- Generated by graphviz version 14.0.4 (0)
 -->
<!-- Title: modules Pages: 1 -->
<svg width="934pt" height="802pt"
 viewBox="0.00 0.00 934.00 802.00" xmlns="http://www.w3.org/2000/svg" xmlns:xlink="http://www.w3.org/1999/xlink">
<g id="graph0" class="graph" transform="scale(1 1) rotate(0) translate(4 798)">
<title>modules</title>
<g id="clust1" class="cluster">
<title>cluster_navigation</title>
<polygon fill="#aa96da" fill-opacity="0.062745" stroke="#aa96da" stroke-dasharray="5,2" points="217.94,-190.5 217.94,-372.73 480.65,-372.73 480.65,-190.5 217.94,-190.5"/>
<text xml:space="preserve" text-anchor="middle" x="438.15" y="-355.43" font-family="fixed" font-size="14.00" fill="#b5e4f4">navigation</text>
</g>
<g id="clust2" class="cluster">
<title>cluster_perception</title>
<polygon fill="#9575cd" fill-opacity="0.062745" stroke="#9575cd" stroke-dasharray="5,2" points="777.21,-666.08 777.21,-794 917.28,-794 917.28,-666.08 777.21,-666.08"/>
<text xml:space="preserve" text-anchor="middle" x="873.66" y="-776.7" font-family="fixed" font-size="14.00" fill="#b5e4f4">perception</text>
</g>
<g id="clust3" class="cluster">
<title>cluster_robot</title>
<polygon fill="#64b5f6" fill-opacity="0.062745" stroke="#64b5f6" stroke-dasharray="5,2" points="627.14,-411.21 627.14,-544.87 747.54,-544.87 747.54,-411.21 627.14,-411.21"/>
<text xml:space="preserve" text-anchor="middle" x="721.92" y="-527.57" font-family="fixed" font-size="14.00" fill="#b5e4f4">robot</text>
</g>
<!-- AstarPlanner -->
<g id="node1" class="node">
<title>AstarPlanner</title>
<polygon fill="#0b0f0f" stroke="#5c9ff0" points="314.59,-283.52 225.94,-283.52 225.94,-247.52 314.59,-247.52 314.59,-283.52"/>
<text xml:space="preserve" text-anchor="middle" x="270.27" y="-262.74" font-family="fixed" font-size="12.00" fill="#b5e4f4">AstarPlanner</text>
</g>
<!-- chan_path_Path -->
<g id="node17" class="node">
<title>chan_path_Path</title>
<polygon fill="#f06292" fill-opacity="0.207843" stroke="#f06292" points="150.61,-409.39 91.21,-409.39 91.21,-387.94 150.61,-387.94 150.61,-409.39"/>
<text xml:space="preserve" text-anchor="middle" x="120.91" y="-396.29" font-family="fixed" font-size="10.00" fill="#b5e4f4">path:Path</text>
</g>
<!-- AstarPlanner&#45;&gt;chan_path_Path -->
<g id="edge20" class="edge">
<title>AstarPlanner&#45;&gt;chan_path_Path</title>
<path fill="none" stroke="#f06292" d="M242.09,-283.7C235.88,-288.04 229.43,-292.79 223.68,-297.53 187.18,-327.64 148.56,-368.41 130.84,-387.7"/>
</g>
<!-- BehaviorTreeNavigator -->
<g id="node2" class="node">
<title>BehaviorTreeNavigator</title>
<polygon fill="#0b0f0f" stroke="#5c9ff0" points="472.65,-287.58 327.75,-287.58 327.75,-251.58 472.65,-251.58 472.65,-287.58"/>
<text xml:space="preserve" text-anchor="middle" x="400.2" y="-266.8" font-family="fixed" font-size="12.00" fill="#b5e4f4">BehaviorTreeNavigator</text>
</g>
<!-- chan_goal_reached_Bool -->
<g id="node13" class="node">
<title>chan_goal_reached_Bool</title>
<polygon fill="#dce775" fill-opacity="0.207843" stroke="#dce775" points="232.11,-74.92 132.21,-74.92 132.21,-53.47 232.11,-53.47 232.11,-74.92"/>
<text xml:space="preserve" text-anchor="middle" x="182.16" y="-61.82" font-family="fixed" font-size="10.00" fill="#b5e4f4">goal_reached:Bool</text>
</g>
<!-- BehaviorTreeNavigator&#45;&gt;chan_goal_reached_Bool -->
<g id="edge12" class="edge">
<title>BehaviorTreeNavigator&#45;&gt;chan_goal_reached_Bool</title>
<path fill="none" stroke="#dce775" d="M346.85,-251.14C337.42,-248.36 327.63,-245.77 318.29,-243.82 306.9,-241.44 275.76,-244.9 266.25,-238.2 208.66,-197.6 188.97,-106.52 183.75,-75.1"/>
</g>
<!-- chan_target_PoseStamped -->
<g id="node18" class="node">
<title>chan_target_PoseStamped</title>
<polygon fill="#ff6b6b" fill-opacity="0.207843" stroke="#ff6b6b" points="453.24,-21.45 343.59,-21.45 343.59,0 453.24,0 453.24,-21.45"/>
<text xml:space="preserve" text-anchor="middle" x="398.42" y="-8.35" font-family="fixed" font-size="10.00" fill="#b5e4f4">target:PoseStamped</text>
</g>
<!-- BehaviorTreeNavigator&#45;&gt;chan_target_PoseStamped -->
<g id="edge22" class="edge">
<title>BehaviorTreeNavigator&#45;&gt;chan_target_PoseStamped</title>
<path fill="none" stroke="#ff6b6b" d="M429.69,-251.24C433.68,-247.44 437.2,-243.08 439.55,-238.2 476.46,-161.54 424.03,-55.85 404.92,-21.78"/>
</g>
<!-- HolonomicLocalPlanner -->
<g id="node3" class="node">
<title>HolonomicLocalPlanner</title>
<polygon fill="#0b0f0f" stroke="#5c9ff0" points="377.53,-337.23 227.38,-337.23 227.38,-301.23 377.53,-301.23 377.53,-337.23"/>
<text xml:space="preserve" text-anchor="middle" x="302.45" y="-316.46" font-family="fixed" font-size="12.00" fill="#b5e4f4">HolonomicLocalPlanner</text>
</g>
<!-- chan_cmd_vel_Twist -->
<g id="node10" class="node">
<title>chan_cmd_vel_Twist</title>
<polygon fill="#4db6ac" fill-opacity="0.207843" stroke="#4db6ac" points="536.97,-501.32 458.82,-501.32 458.82,-479.87 536.97,-479.87 536.97,-501.32"/>
<text xml:space="preserve" text-anchor="middle" x="497.9" y="-488.22" font-family="fixed" font-size="10.00" fill="#b5e4f4">cmd_vel:Twist</text>
</g>
<!-- HolonomicLocalPlanner&#45;&gt;chan_cmd_vel_Twist -->
<g id="edge3" class="edge">
<title>HolonomicLocalPlanner&#45;&gt;chan_cmd_vel_Twist</title>
<path fill="none" stroke="#4db6ac" d="M323.37,-337.57C363.94,-373.14 452.23,-450.55 485.17,-479.44"/>
</g>
<!-- WavefrontFrontierExplorer -->
<g id="node4" class="node">
<title>WavefrontFrontierExplorer</title>
<polygon fill="#0b0f0f" stroke="#5c9ff0" points="435.85,-234.5 269.95,-234.5 269.95,-198.5 435.85,-198.5 435.85,-234.5"/>
<text xml:space="preserve" text-anchor="middle" x="352.9" y="-213.72" font-family="fixed" font-size="12.00" fill="#b5e4f4">WavefrontFrontierExplorer</text>
</g>
<!-- chan_goal_request_PoseStamped -->
<g id="node14" class="node">
<title>chan_goal_request_PoseStamped</title>
<polygon fill="#fff59d" fill-opacity="0.207843" stroke="#fff59d" points="141.15,-206.65 0,-206.65 0,-185.2 141.15,-185.2 141.15,-206.65"/>
<text xml:space="preserve" text-anchor="middle" x="70.57" y="-193.55" font-family="fixed" font-size="10.00" fill="#b5e4f4">goal_request:PoseStamped</text>
</g>
<!-- WavefrontFrontierExplorer&#45;&gt;chan_goal_request_PoseStamped -->
<g id="edge14" class="edge">
<title>WavefrontFrontierExplorer&#45;&gt;chan_goal_request_PoseStamped</title>
<path fill="none" stroke="#fff59d" d="M269.72,-210.43C228.89,-207.46 180.24,-203.91 141.24,-201.07"/>
</g>
<!-- ObjectTracking -->
<g id="node5" class="node">
<title>ObjectTracking</title>
<polygon fill="#0b0f0f" stroke="#5c9ff0" points="884.36,-710.08 785.21,-710.08 785.21,-674.08 884.36,-674.08 884.36,-710.08"/>
<text xml:space="preserve" text-anchor="middle" x="834.78" y="-689.3" font-family="fixed" font-size="12.00" fill="#b5e4f4">ObjectTracking</text>
</g>
<!-- SpatialMemory -->
<g id="node6" class="node">
<title>SpatialMemory</title>
<polygon fill="#0b0f0f" stroke="#5c9ff0" points="909.28,-758.5 808.63,-758.5 808.63,-722.5 909.28,-722.5 909.28,-758.5"/>
<text xml:space="preserve" text-anchor="middle" x="858.96" y="-737.73" font-family="fixed" font-size="12.00" fill="#b5e4f4">SpatialMemory</text>
</g>
<!-- GO2Connection -->
<g id="node7" class="node">
<title>GO2Connection</title>
<polygon fill="#0b0f0f" stroke="#5c9ff0" points="739.54,-509.37 635.14,-509.37 635.14,-473.37 739.54,-473.37 739.54,-509.37"/>
<text xml:space="preserve" text-anchor="middle" x="687.34" y="-488.6" font-family="fixed" font-size="12.00" fill="#b5e4f4">GO2Connection</text>
</g>
<!-- chan_camera_info_CameraInfo -->
<g id="node9" class="node">
<title>chan_camera_info_CameraInfo</title>
<polygon fill="#dce775" fill-opacity="0.207843" stroke="#dce775" points="721.31,-706.52 592.91,-706.52 592.91,-685.07 721.31,-685.07 721.31,-706.52"/>
<text xml:space="preserve" text-anchor="middle" x="657.11" y="-693.42" font-family="fixed" font-size="10.00" fill="#b5e4f4">camera_info:CameraInfo</text>
</g>
<!-- GO2Connection&#45;&gt;chan_camera_info_CameraInfo -->
<g id="edge1" class="edge">
<title>GO2Connection&#45;&gt;chan_camera_info_CameraInfo</title>
<path fill="none" stroke="#dce775" d="M684.66,-509.52C678.53,-550.95 663.66,-651.5 658.73,-684.85"/>
</g>
<!-- chan_color_image_Image -->
<g id="node11" class="node">
<title>chan_color_image_Image</title>
<polygon fill="#95e1d3" fill-opacity="0.207843" stroke="#95e1d3" points="856.9,-656.3 753.25,-656.3 753.25,-634.85 856.9,-634.85 856.9,-656.3"/>
<text xml:space="preserve" text-anchor="middle" x="805.08" y="-643.2" font-family="fixed" font-size="10.00" fill="#b5e4f4">color_image:Image</text>
</g>
<!-- GO2Connection&#45;&gt;chan_color_image_Image -->
<g id="edge5" class="edge">
<title>GO2Connection&#45;&gt;chan_color_image_Image</title>
<path fill="none" stroke="#95e1d3" d="M701.31,-509.67C726.04,-542.06 776.8,-608.54 796.76,-634.68"/>
</g>
<!-- chan_lidar_LidarMessage -->
<g id="node15" class="node">
<title>chan_lidar_LidarMessage</title>
<polygon fill="#7986cb" fill-opacity="0.207843" stroke="#7986cb" points="926.17,-417.32 824.02,-417.32 824.02,-395.87 926.17,-395.87 926.17,-417.32"/>
<text xml:space="preserve" text-anchor="middle" x="875.1" y="-404.22" font-family="fixed" font-size="10.00" fill="#b5e4f4">lidar:LidarMessage</text>
</g>
<!-- GO2Connection&#45;&gt;chan_lidar_LidarMessage -->
<g id="edge16" class="edge">
<title>GO2Connection&#45;&gt;chan_lidar_LidarMessage</title>
<path fill="none" stroke="#7986cb" d="M728.08,-472.98C765.29,-456.18 819.11,-431.87 850.25,-417.81"/>
</g>
<!-- Map -->
<g id="node8" class="node">
<title>Map</title>
<polygon fill="#0b0f0f" stroke="#5c9ff0" points="732.81,-455.21 678.81,-455.21 678.81,-419.21 732.81,-419.21 732.81,-455.21"/>
<text xml:space="preserve" text-anchor="middle" x="705.81" y="-434.43" font-family="fixed" font-size="12.00" fill="#b5e4f4">Map</text>
</g>
<!-- chan_global_costmap_OccupancyGrid -->
<g id="node12" class="node">
<title>chan_global_costmap_OccupancyGrid</title>
<polygon fill="#ff8a65" fill-opacity="0.207843" stroke="#ff8a65" points="743.59,-402.41 585.19,-402.41 585.19,-380.96 743.59,-380.96 743.59,-402.41"/>
<text xml:space="preserve" text-anchor="middle" x="664.39" y="-389.31" font-family="fixed" font-size="10.00" fill="#b5e4f4">global_costmap:OccupancyGrid</text>
</g>
<!-- Map&#45;&gt;chan_global_costmap_OccupancyGrid -->
<g id="edge8" class="edge">
<title>Map&#45;&gt;chan_global_costmap_OccupancyGrid</title>
<path fill="none" stroke="#ff8a65" d="M689.2,-418.95C684.25,-413.51 678.97,-407.71 674.57,-402.87"/>
</g>
<!-- chan_local_costmap_OccupancyGrid -->
<g id="node16" class="node">
<title>chan_local_costmap_OccupancyGrid</title>
<polygon fill="#f06292" fill-opacity="0.207843" stroke="#f06292" points="573.86,-412.6 422.96,-412.6 422.96,-391.15 573.86,-391.15 573.86,-412.6"/>
<text xml:space="preserve" text-anchor="middle" x="498.41" y="-399.5" font-family="fixed" font-size="10.00" fill="#b5e4f4">local_costmap:OccupancyGrid</text>
</g>
<!-- Map&#45;&gt;chan_local_costmap_OccupancyGrid -->
<g id="edge18" class="edge">
<title>Map&#45;&gt;chan_local_costmap_OccupancyGrid</title>
<path fill="none" stroke="#f06292" d="M678.69,-432.59C649.71,-427.65 602.68,-419.64 563.93,-413.04"/>
</g>
<!-- chan_camera_info_CameraInfo&#45;&gt;ObjectTracking -->
<g id="edge2" class="edge">
<title>chan_camera_info_CameraInfo&#45;&gt;ObjectTracking</title>
<path fill="none" stroke="#dce775" d="M721.75,-694.44C738.68,-694.09 756.88,-693.71 773.62,-693.36"/>
<polygon fill="#dce775" stroke="#dce775" points="773.51,-696.86 783.43,-693.15 773.36,-689.86 773.51,-696.86"/>
</g>
<!-- chan_cmd_vel_Twist&#45;&gt;GO2Connection -->
<g id="edge4" class="edge">
<title>chan_cmd_vel_Twist&#45;&gt;GO2Connection</title>
<path fill="none" stroke="#4db6ac" d="M537.15,-490.76C562.12,-490.86 595.04,-491 623.69,-491.11"/>
<polygon fill="#4db6ac" stroke="#4db6ac" points="623.31,-494.61 633.33,-491.15 623.34,-487.61 623.31,-494.61"/>
</g>
<!-- chan_color_image_Image&#45;&gt;ObjectTracking -->
<g id="edge7" class="edge">
<title>chan_color_image_Image&#45;&gt;ObjectTracking</title>
<path fill="none" stroke="#95e1d3" d="M811.97,-656.36C813.51,-658.78 815.21,-661.45 816.98,-664.21"/>
<polygon fill="#95e1d3" stroke="#95e1d3" points="813.89,-665.88 822.23,-672.43 819.79,-662.11 813.89,-665.88"/>
</g>
<!-- chan_color_image_Image&#45;&gt;SpatialMemory -->
<g id="edge6" class="edge">
<title>chan_color_image_Image&#45;&gt;SpatialMemory</title>
<path fill="none" stroke="#95e1d3" d="M791.19,-656.57C787.31,-660.47 783.58,-665.19 781.51,-670.38 774.35,-688.29 770.31,-698.07 781.51,-713.78 785.89,-719.93 791.78,-724.67 798.37,-728.34"/>
<polygon fill="#95e1d3" stroke="#95e1d3" points="796.51,-731.33 807.06,-732.33 799.44,-724.97 796.51,-731.33"/>
</g>
<!-- chan_global_costmap_OccupancyGrid&#45;&gt;AstarPlanner -->
<g id="edge9" class="edge">
<title>chan_global_costmap_OccupancyGrid&#45;&gt;AstarPlanner</title>
<path fill="none" stroke="#ff8a65" d="M637.2,-380.49C587.37,-360.44 477.65,-318.58 381.23,-297.53 356.25,-292.08 348.63,-298.29 324.05,-291.28 320.97,-290.4 317.84,-289.36 314.74,-288.2"/>
<polygon fill="#ff8a65" stroke="#ff8a65" points="316.29,-285.06 305.71,-284.5 313.63,-291.53 316.29,-285.06"/>
</g>
<!-- chan_global_costmap_OccupancyGrid&#45;&gt;BehaviorTreeNavigator -->
<g id="edge10" class="edge">
<title>chan_global_costmap_OccupancyGrid&#45;&gt;BehaviorTreeNavigator</title>
<path fill="none" stroke="#ff8a65" d="M640.48,-380.64C597.67,-360.85 507.11,-318.99 450.21,-292.69"/>
<polygon fill="#ff8a65" stroke="#ff8a65" points="451.91,-289.63 441.37,-288.61 448.98,-295.98 451.91,-289.63"/>
</g>
<!-- chan_global_costmap_OccupancyGrid&#45;&gt;WavefrontFrontierExplorer -->
<g id="edge11" class="edge">
<title>chan_global_costmap_OccupancyGrid&#45;&gt;WavefrontFrontierExplorer</title>
<path fill="none" stroke="#ff8a65" d="M653.61,-380.82C626.42,-354.04 551.81,-284.42 476.35,-247.88 467.14,-243.42 457.23,-239.55 447.17,-236.2"/>
<polygon fill="#ff8a65" stroke="#ff8a65" points="448.25,-232.87 437.66,-233.21 446.15,-239.55 448.25,-232.87"/>
</g>
<!-- chan_goal_reached_Bool&#45;&gt;WavefrontFrontierExplorer -->
<g id="edge13" class="edge">
<title>chan_goal_reached_Bool&#45;&gt;WavefrontFrontierExplorer</title>
<path fill="none" stroke="#dce775" d="M194.71,-75.39C221.74,-99.5 286.01,-156.83 323.79,-190.53"/>
<polygon fill="#dce775" stroke="#dce775" points="321.41,-193.1 331.2,-197.14 326.07,-187.87 321.41,-193.1"/>
</g>
<!-- chan_goal_request_PoseStamped&#45;&gt;BehaviorTreeNavigator -->
<g id="edge15" class="edge">
<title>chan_goal_request_PoseStamped&#45;&gt;BehaviorTreeNavigator</title>
<path fill="none" stroke="#fff59d" d="M115.79,-207.11C155.28,-216.53 214.27,-229.8 266.25,-238.2 289.22,-241.91 295.52,-239.05 318.29,-243.82 324.13,-245.04 330.14,-246.51 336.13,-248.11"/>
<polygon fill="#fff59d" stroke="#fff59d" points="334.82,-251.38 345.39,-250.73 336.72,-244.64 334.82,-251.38"/>
</g>
<!-- chan_lidar_LidarMessage&#45;&gt;Map -->
<g id="edge17" class="edge">
<title>chan_lidar_LidarMessage&#45;&gt;Map</title>
<path fill="none" stroke="#7986cb" d="M823.85,-415.86C798.37,-420.47 768.09,-425.94 744.58,-430.2"/>
<polygon fill="#7986cb" stroke="#7986cb" points="744,-426.74 734.78,-431.97 745.25,-433.63 744,-426.74"/>
</g>
<!-- chan_local_costmap_OccupancyGrid&#45;&gt;HolonomicLocalPlanner -->
<g id="edge19" class="edge">
<title>chan_local_costmap_OccupancyGrid&#45;&gt;HolonomicLocalPlanner</title>
<path fill="none" stroke="#f06292" d="M471.98,-390.73C442.48,-378.29 393.93,-357.81 356.34,-341.96"/>
<polygon fill="#f06292" stroke="#f06292" points="358.02,-338.87 347.44,-338.2 355.3,-345.32 358.02,-338.87"/>
</g>
<!-- chan_path_Path&#45;&gt;HolonomicLocalPlanner -->
<g id="edge21" class="edge">
<title>chan_path_Path&#45;&gt;HolonomicLocalPlanner</title>
<path fill="none" stroke="#f06292" d="M146.53,-387.45C173.28,-375.75 215.99,-357.06 249.95,-342.21"/>
<polygon fill="#f06292" stroke="#f06292" points="251.03,-345.55 258.79,-338.34 248.23,-339.14 251.03,-345.55"/>
</g>
<!-- chan_target_PoseStamped&#45;&gt;AstarPlanner -->
<g id="edge23" class="edge">
<title>chan_target_PoseStamped&#45;&gt;AstarPlanner</title>
<path fill="none" stroke="#ff6b6b" d="M386.51,-21.74C358.81,-48.28 290.59,-119.15 266.25,-194.8 262.04,-207.88 262.27,-223.02 263.87,-235.93"/>
<polygon fill="#ff6b6b" stroke="#ff6b6b" points="260.37,-236.21 265.39,-245.54 267.28,-235.11 260.37,-236.21"/>
</g>
</g>
</svg>
