<?xml version="1.0" encoding="UTF-8" standalone="no"?>
<!DOCTYPE svg PUBLIC "-//W3C//DTD SVG 1.1//EN"
 "http://www.w3.org/Graphics/SVG/1.1/DTD/svg11.dtd">
<!-- Generated by graphviz version 14.0.4 (0)
 -->
<!-- Title: modules Pages: 1 -->
<svg width="850pt" height="578pt"
 viewBox="0.00 0.00 850.00 578.00" xmlns="http://www.w3.org/2000/svg" xmlns:xlink="http://www.w3.org/1999/xlink">
<g id="graph0" class="graph" transform="scale(1 1) rotate(0) translate(4 574.49)">
<title>modules</title>
<g id="clust1" class="cluster">
<title>cluster_navigation</title>
<polygon fill="#aa96da" fill-opacity="0.062745" stroke="#aa96da" stroke-dasharray="5,2" points="169.72,-204 169.72,-355.04 507.21,-355.04 507.21,-204 169.72,-204"/>
<text xml:space="preserve" text-anchor="middle" x="464.71" y="-337.74" font-family="fixed" font-size="14.00" fill="#b5e4f4">navigation</text>
</g>
<g id="clust2" class="cluster">
<title>cluster_perception</title>
<polygon fill="#9575cd" fill-opacity="0.062745" stroke="#9575cd" stroke-dasharray="5,2" points="530.99,-426.73 530.99,-552.4 744.38,-552.4 744.38,-426.73 530.99,-426.73"/>
<text xml:space="preserve" text-anchor="middle" x="700.75" y="-535.1" font-family="fixed" font-size="14.00" fill="#b5e4f4">perception</text>
</g>
<g id="clust3" class="cluster">
<title>cluster_robot</title>
<polygon fill="#64b5f6" fill-opacity="0.062745" stroke="#64b5f6" stroke-dasharray="5,2" points="516.41,-164.26 516.41,-292.22 636.81,-292.22 636.81,-164.26 516.41,-164.26"/>
<text xml:space="preserve" text-anchor="middle" x="611.19" y="-274.92" font-family="fixed" font-size="14.00" fill="#b5e4f4">robot</text>
</g>
<!-- AstarPlanner -->
<g id="node1" class="node">
<title>AstarPlanner</title>
<polygon fill="#0b0f0f" stroke="#5c9ff0" points="446.34,-319.54 357.69,-319.54 357.69,-283.54 446.34,-283.54 446.34,-319.54"/>
<text xml:space="preserve" text-anchor="middle" x="402.02" y="-298.76" font-family="fixed" font-size="12.00" fill="#b5e4f4">AstarPlanner</text>
</g>
<!-- ObjectTracking -->
<g id="node5" class="node">
<title>ObjectTracking</title>
<polygon fill="#0b0f0f" stroke="#5c9ff0" points="736.38,-516.9 637.23,-516.9 637.23,-480.9 736.38,-480.9 736.38,-516.9"/>
<text xml:space="preserve" text-anchor="middle" x="686.8" y="-496.13" font-family="fixed" font-size="12.00" fill="#b5e4f4">ObjectTracking</text>
</g>
<!-- AstarPlanner&#45;&gt;ObjectTracking -->
<!-- chan_path_Path -->
<g id="node17" class="node">
<title>chan_path_Path</title>
<polygon fill="#f06292" fill-opacity="0.207843" stroke="#f06292" points="90.03,-357.61 30.63,-357.61 30.63,-336.16 90.03,-336.16 90.03,-357.61"/>
<text xml:space="preserve" text-anchor="middle" x="60.33" y="-344.51" font-family="fixed" font-size="10.00" fill="#b5e4f4">path:Path</text>
</g>
<!-- AstarPlanner&#45;&gt;chan_path_Path -->
<g id="edge22" class="edge">
<title>AstarPlanner&#45;&gt;chan_path_Path</title>
<path fill="none" stroke="#f06292" d="M357.49,-309.79C353.12,-310.52 348.74,-311.23 344.53,-311.87 252.12,-325.85 142.16,-338.18 90.27,-343.75"/>
</g>
<!-- BehaviorTreeNavigator -->
<g id="node2" class="node">
<title>BehaviorTreeNavigator</title>
<polygon fill="#0b0f0f" stroke="#5c9ff0" points="499.21,-264.49 354.31,-264.49 354.31,-228.49 499.21,-228.49 499.21,-264.49"/>
<text xml:space="preserve" text-anchor="middle" x="426.76" y="-243.71" font-family="fixed" font-size="12.00" fill="#b5e4f4">BehaviorTreeNavigator</text>
</g>
<!-- chan_goal_reached_Bool -->
<g id="node13" class="node">
<title>chan_goal_reached_Bool</title>
<polygon fill="#dce775" fill-opacity="0.207843" stroke="#dce775" points="665.49,-132.84 565.59,-132.84 565.59,-111.39 665.49,-111.39 665.49,-132.84"/>
<text xml:space="preserve" text-anchor="middle" x="615.54" y="-119.74" font-family="fixed" font-size="10.00" fill="#b5e4f4">goal_reached:Bool</text>
</g>
<!-- BehaviorTreeNavigator&#45;&gt;chan_goal_reached_Bool -->
<g id="edge14" class="edge">
<title>BehaviorTreeNavigator&#45;&gt;chan_goal_reached_Bool</title>
<path fill="none" stroke="#dce775" d="M454.62,-228.13C494.31,-201.98 565.94,-154.79 598.55,-133.31"/>
</g>
<!-- chan_target_PoseStamped -->
<g id="node18" class="node">
<title>chan_target_PoseStamped</title>
<polygon fill="#ff6b6b" fill-opacity="0.207843" stroke="#ff6b6b" points="260.02,-570.49 150.37,-570.49 150.37,-549.04 260.02,-549.04 260.02,-570.49"/>
<text xml:space="preserve" text-anchor="middle" x="205.19" y="-557.39" font-family="fixed" font-size="10.00" fill="#b5e4f4">target:PoseStamped</text>
</g>
<!-- BehaviorTreeNavigator&#45;&gt;chan_target_PoseStamped -->
<g id="edge24" class="edge">
<title>BehaviorTreeNavigator&#45;&gt;chan_target_PoseStamped</title>
<path fill="none" stroke="#ff6b6b" d="M372.25,-264.98C365.44,-269.05 359.09,-273.96 353.99,-279.84 344.27,-291.05 350.3,-298.19 344.53,-311.87 303.8,-408.28 234.97,-515.02 212.52,-548.86"/>
</g>
<!-- HolonomicLocalPlanner -->
<g id="node3" class="node">
<title>HolonomicLocalPlanner</title>
<polygon fill="#0b0f0f" stroke="#5c9ff0" points="340.83,-308.17 190.68,-308.17 190.68,-272.17 340.83,-272.17 340.83,-308.17"/>
<text xml:space="preserve" text-anchor="middle" x="265.75" y="-287.39" font-family="fixed" font-size="12.00" fill="#b5e4f4">HolonomicLocalPlanner</text>
</g>
<!-- chan_cmd_vel_Twist -->
<g id="node10" class="node">
<title>chan_cmd_vel_Twist</title>
<polygon fill="#4db6ac" fill-opacity="0.207843" stroke="#4db6ac" points="650.85,-385.05 572.7,-385.05 572.7,-363.6 650.85,-363.6 650.85,-385.05"/>
<text xml:space="preserve" text-anchor="middle" x="611.77" y="-371.95" font-family="fixed" font-size="10.00" fill="#b5e4f4">cmd_vel:Twist</text>
</g>
<!-- HolonomicLocalPlanner&#45;&gt;chan_cmd_vel_Twist -->
<g id="edge5" class="edge">
<title>HolonomicLocalPlanner&#45;&gt;chan_cmd_vel_Twist</title>
<path fill="none" stroke="#4db6ac" d="M310.62,-308.59C324.38,-313.81 339.67,-319.16 353.99,-323.24 430.13,-344.89 521.47,-360.66 572.43,-368.57"/>
</g>
<!-- WavefrontFrontierExplorer -->
<g id="node4" class="node">
<title>WavefrontFrontierExplorer</title>
<polygon fill="#0b0f0f" stroke="#5c9ff0" points="343.62,-248 177.72,-248 177.72,-212 343.62,-212 343.62,-248"/>
<text xml:space="preserve" text-anchor="middle" x="260.67" y="-227.22" font-family="fixed" font-size="12.00" fill="#b5e4f4">WavefrontFrontierExplorer</text>
</g>
<!-- chan_goal_request_PoseStamped -->
<g id="node14" class="node">
<title>chan_goal_request_PoseStamped</title>
<polygon fill="#fff59d" fill-opacity="0.207843" stroke="#fff59d" points="141.15,-132.86 0,-132.86 0,-111.41 141.15,-111.41 141.15,-132.86"/>
<text xml:space="preserve" text-anchor="middle" x="70.58" y="-119.76" font-family="fixed" font-size="10.00" fill="#b5e4f4">goal_request:PoseStamped</text>
</g>
<!-- WavefrontFrontierExplorer&#45;&gt;chan_goal_request_PoseStamped -->
<g id="edge16" class="edge">
<title>WavefrontFrontierExplorer&#45;&gt;chan_goal_request_PoseStamped</title>
<path fill="none" stroke="#fff59d" d="M228.42,-211.7C188.81,-189.22 122.84,-151.79 90.16,-133.25"/>
</g>
<!-- GO2Connection -->
<g id="node7" class="node">
<title>GO2Connection</title>
<polygon fill="#0b0f0f" stroke="#5c9ff0" points="628.81,-256.72 524.41,-256.72 524.41,-220.72 628.81,-220.72 628.81,-256.72"/>
<text xml:space="preserve" text-anchor="middle" x="576.61" y="-235.95" font-family="fixed" font-size="12.00" fill="#b5e4f4">GO2Connection</text>
</g>
<!-- ObjectTracking&#45;&gt;GO2Connection -->
<!-- SpatialMemory -->
<g id="node6" class="node">
<title>SpatialMemory</title>
<polygon fill="#0b0f0f" stroke="#5c9ff0" points="639.64,-470.73 538.99,-470.73 538.99,-434.73 639.64,-434.73 639.64,-470.73"/>
<text xml:space="preserve" text-anchor="middle" x="589.31" y="-449.95" font-family="fixed" font-size="12.00" fill="#b5e4f4">SpatialMemory</text>
</g>
<!-- chan_camera_info_CameraInfo -->
<g id="node9" class="node">
<title>chan_camera_info_CameraInfo</title>
<polygon fill="#dce775" fill-opacity="0.207843" stroke="#dce775" points="842.27,-315.15 713.87,-315.15 713.87,-293.7 842.27,-293.7 842.27,-315.15"/>
<text xml:space="preserve" text-anchor="middle" x="778.07" y="-302.05" font-family="fixed" font-size="10.00" fill="#b5e4f4">camera_info:CameraInfo</text>
</g>
<!-- GO2Connection&#45;&gt;chan_camera_info_CameraInfo -->
<g id="edge3" class="edge">
<title>GO2Connection&#45;&gt;chan_camera_info_CameraInfo</title>
<path fill="none" stroke="#dce775" d="M629.28,-255.9C665.42,-267.68 712.34,-282.99 743.74,-293.23"/>
</g>
<!-- chan_color_image_Image -->
<g id="node11" class="node">
<title>chan_color_image_Image</title>
<polygon fill="#95e1d3" fill-opacity="0.207843" stroke="#95e1d3" points="516.61,-403.27 412.96,-403.27 412.96,-381.82 516.61,-381.82 516.61,-403.27"/>
<text xml:space="preserve" text-anchor="middle" x="464.79" y="-390.17" font-family="fixed" font-size="10.00" fill="#b5e4f4">color_image:Image</text>
</g>
<!-- GO2Connection&#45;&gt;chan_color_image_Image -->
<g id="edge7" class="edge">
<title>GO2Connection&#45;&gt;chan_color_image_Image</title>
<path fill="none" stroke="#95e1d3" d="M563.34,-256.97C539.86,-289.28 491.65,-355.6 472.69,-381.67"/>
</g>
<!-- chan_lidar_LidarMessage -->
<g id="node15" class="node">
<title>chan_lidar_LidarMessage</title>
<polygon fill="#7986cb" fill-opacity="0.207843" stroke="#7986cb" points="525.34,-55.63 423.19,-55.63 423.19,-34.18 525.34,-34.18 525.34,-55.63"/>
<text xml:space="preserve" text-anchor="middle" x="474.27" y="-42.53" font-family="fixed" font-size="10.00" fill="#b5e4f4">lidar:LidarMessage</text>
</g>
<!-- GO2Connection&#45;&gt;chan_lidar_LidarMessage -->
<g id="edge18" class="edge">
<title>GO2Connection&#45;&gt;chan_lidar_LidarMessage</title>
<path fill="none" stroke="#7986cb" d="M565.5,-220.38C563.85,-217.58 562.2,-214.7 560.68,-211.96 528.48,-154.02 493.01,-82.93 479.71,-55.97"/>
</g>
<!-- Map -->
<g id="node8" class="node">
<title>Map</title>
<polygon fill="#0b0f0f" stroke="#5c9ff0" points="618.38,-208.26 564.38,-208.26 564.38,-172.26 618.38,-172.26 618.38,-208.26"/>
<text xml:space="preserve" text-anchor="middle" x="591.38" y="-187.49" font-family="fixed" font-size="12.00" fill="#b5e4f4">Map</text>
</g>
<!-- chan_global_costmap_OccupancyGrid -->
<g id="node12" class="node">
<title>chan_global_costmap_OccupancyGrid</title>
<polygon fill="#ff8a65" fill-opacity="0.207843" stroke="#ff8a65" points="428.25,-186.23 269.85,-186.23 269.85,-164.78 428.25,-164.78 428.25,-186.23"/>
<text xml:space="preserve" text-anchor="middle" x="349.05" y="-173.13" font-family="fixed" font-size="10.00" fill="#b5e4f4">global_costmap:OccupancyGrid</text>
</g>
<!-- Map&#45;&gt;chan_global_costmap_OccupancyGrid -->
<g id="edge10" class="edge">
<title>Map&#45;&gt;chan_global_costmap_OccupancyGrid</title>
<path fill="none" stroke="#ff8a65" d="M564.05,-188.6C531.37,-186.61 475.23,-183.19 428.51,-180.34"/>
</g>
<!-- chan_local_costmap_OccupancyGrid -->
<g id="node16" class="node">
<title>chan_local_costmap_OccupancyGrid</title>
<polygon fill="#f06292" fill-opacity="0.207843" stroke="#f06292" points="632.34,-21.45 481.44,-21.45 481.44,0 632.34,0 632.34,-21.45"/>
<text xml:space="preserve" text-anchor="middle" x="556.89" y="-8.35" font-family="fixed" font-size="10.00" fill="#b5e4f4">local_costmap:OccupancyGrid</text>
</g>
<!-- Map&#45;&gt;chan_local_costmap_OccupancyGrid -->
<g id="edge20" class="edge">
<title>Map&#45;&gt;chan_local_costmap_OccupancyGrid</title>
<path fill="none" stroke="#f06292" d="M578.45,-171.79C572.22,-161.83 565.36,-149.05 561.89,-136.54 550.48,-95.47 553.55,-43.97 555.66,-21.76"/>
</g>
<!-- chan_camera_info_CameraInfo&#45;&gt;ObjectTracking -->
<g id="edge4" class="edge">
<title>chan_camera_info_CameraInfo&#45;&gt;ObjectTracking</title>
<path fill="none" stroke="#dce775" d="M772.9,-315.43C759.06,-344.92 720.85,-426.36 700.29,-470.15"/>
<polygon fill="#dce775" stroke="#dce775" points="697.2,-468.51 696.12,-479.05 703.54,-471.49 697.2,-468.51"/>
</g>
<!-- chan_cmd_vel_Twist&#45;&gt;GO2Connection -->
<g id="edge6" class="edge">
<title>chan_cmd_vel_Twist&#45;&gt;GO2Connection</title>
<path fill="none" stroke="#4db6ac" d="M608.89,-363.23C603.56,-342.68 592,-298.08 584.26,-268.22"/>
<polygon fill="#4db6ac" stroke="#4db6ac" points="587.68,-267.47 581.78,-258.67 580.9,-269.23 587.68,-267.47"/>
</g>
<!-- chan_color_image_Image&#45;&gt;ObjectTracking -->
<g id="edge9" class="edge">
<title>chan_color_image_Image&#45;&gt;ObjectTracking</title>
<path fill="none" stroke="#95e1d3" d="M470.89,-403.74C481.42,-421.89 504.84,-457.39 535.29,-474.43 562.59,-489.7 596.72,-496.11 625.67,-498.58"/>
<polygon fill="#95e1d3" stroke="#95e1d3" points="625.17,-502.05 635.39,-499.26 625.66,-495.07 625.17,-502.05"/>
</g>
<!-- chan_color_image_Image&#45;&gt;SpatialMemory -->
<g id="edge8" class="edge">
<title>chan_color_image_Image&#45;&gt;SpatialMemory</title>
<path fill="none" stroke="#95e1d3" d="M487.92,-403.72C502.8,-410.92 522.71,-420.54 540.94,-429.35"/>
<polygon fill="#95e1d3" stroke="#95e1d3" points="539.25,-432.42 549.78,-433.62 542.29,-426.12 539.25,-432.42"/>
</g>
<!-- chan_global_costmap_OccupancyGrid&#45;&gt;AstarPlanner -->
<g id="edge11" class="edge">
<title>chan_global_costmap_OccupancyGrid&#45;&gt;AstarPlanner</title>
<path fill="none" stroke="#ff8a65" d="M348.66,-186.55C347.93,-209.59 346.75,-261.22 350.61,-268.19 352.01,-270.71 353.69,-273.07 355.58,-275.28"/>
<polygon fill="#ff8a65" stroke="#ff8a65" points="352.96,-277.62 362.61,-282 357.8,-272.56 352.96,-277.62"/>
</g>
<!-- chan_global_costmap_OccupancyGrid&#45;&gt;BehaviorTreeNavigator -->
<g id="edge12" class="edge">
<title>chan_global_costmap_OccupancyGrid&#45;&gt;BehaviorTreeNavigator</title>
<path fill="none" stroke="#ff8a65" d="M361.19,-186.6C371.04,-195.59 385.33,-208.64 398.06,-220.27"/>
<polygon fill="#ff8a65" stroke="#ff8a65" points="395.68,-222.84 405.43,-227 400.41,-217.67 395.68,-222.84"/>
</g>
<!-- chan_global_costmap_OccupancyGrid&#45;&gt;WavefrontFrontierExplorer -->
<g id="edge13" class="edge">
<title>chan_global_costmap_OccupancyGrid&#45;&gt;WavefrontFrontierExplorer</title>
<path fill="none" stroke="#ff8a65" d="M331.16,-186.53C322.2,-192.06 310.98,-198.98 300.13,-205.66"/>
<polygon fill="#ff8a65" stroke="#ff8a65" points="298.32,-202.67 291.65,-210.9 302,-208.63 298.32,-202.67"/>
</g>
<!-- chan_goal_reached_Bool&#45;&gt;WavefrontFrontierExplorer -->
<g id="edge15" class="edge">
<title>chan_goal_reached_Bool&#45;&gt;WavefrontFrontierExplorer</title>
<path fill="none" stroke="#dce775" d="M588.53,-133.3C553.04,-147.7 488.57,-172.92 431.95,-189.93 407.23,-197.35 380.18,-204.24 355.01,-210.14"/>
<polygon fill="#dce775" stroke="#dce775" points="354.41,-206.69 345.45,-212.35 355.99,-213.51 354.41,-206.69"/>
</g>
<!-- chan_goal_request_PoseStamped&#45;&gt;BehaviorTreeNavigator -->
<g id="edge17" class="edge">
<title>chan_goal_request_PoseStamped&#45;&gt;BehaviorTreeNavigator</title>
<path fill="none" stroke="#fff59d" d="M99.41,-133.26C137.28,-147.61 206.02,-172.76 266.15,-189.93 301.72,-200.08 312.39,-196.12 347.32,-208.3 359.05,-212.38 371.32,-217.72 382.62,-223.1"/>
<polygon fill="#fff59d" stroke="#fff59d" points="380.8,-226.1 391.32,-227.35 383.87,-219.81 380.8,-226.1"/>
</g>
<!-- chan_lidar_LidarMessage&#45;&gt;Map -->
<g id="edge19" class="edge">
<title>chan_lidar_LidarMessage&#45;&gt;Map</title>
<path fill="none" stroke="#7986cb" d="M483.07,-55.83C501.27,-78.43 543.53,-130.87 569.55,-163.17"/>
<polygon fill="#7986cb" stroke="#7986cb" points="566.8,-165.33 575.8,-170.92 572.25,-160.94 566.8,-165.33"/>
</g>
<!-- chan_local_costmap_OccupancyGrid&#45;&gt;HolonomicLocalPlanner -->
<g id="edge21" class="edge">
<title>chan_local_costmap_OccupancyGrid&#45;&gt;HolonomicLocalPlanner</title>
<path fill="none" stroke="#f06292" d="M551.06,-21.76C545.66,-31.76 537.25,-46.8 529.04,-59.33 489.42,-119.84 488.72,-145.12 431.95,-189.93 401.08,-214.3 374.22,-193.33 350.61,-224.79 343.38,-234.42 354.38,-241.93 347.32,-251.7 343.44,-257.06 338.62,-261.7 333.27,-265.72"/>
<polygon fill="#f06292" stroke="#f06292" points="331.56,-262.65 325.11,-271.06 335.4,-268.51 331.56,-262.65"/>
</g>
<!-- chan_path_Path&#45;&gt;HolonomicLocalPlanner -->
<g id="edge23" class="edge">
<title>chan_path_Path&#45;&gt;HolonomicLocalPlanner</title>
<path fill="none" stroke="#f06292" d="M90.2,-338.64C115.8,-331.57 153.85,-321.06 187.99,-311.64"/>
<polygon fill="#f06292" stroke="#f06292" points="188.74,-315.06 197.45,-309.03 186.88,-308.31 188.74,-315.06"/>
</g>
<!-- chan_target_PoseStamped&#45;&gt;AstarPlanner -->
<g id="edge25" class="edge">
<title>chan_target_PoseStamped&#45;&gt;AstarPlanner</title>
<path fill="none" stroke="#ff6b6b" d="M213.65,-548.67C242.66,-510.62 338.66,-384.67 381.3,-328.72"/>
<polygon fill="#ff6b6b" stroke="#ff6b6b" points="383.94,-331.02 387.22,-320.95 378.37,-326.78 383.94,-331.02"/>
</g>
</g>
</svg>
