<?xml version="1.0" encoding="UTF-8" standalone="no"?>
<!DOCTYPE svg PUBLIC "-//W3C//DTD SVG 1.1//EN"
 "http://www.w3.org/Graphics/SVG/1.1/DTD/svg11.dtd">
<!-- Generated by graphviz version 14.0.4 (0)
 -->
<!-- Title: modules Pages: 1 -->
<svg width="891pt" height="728pt"
 viewBox="0.00 0.00 891.00 728.00" xmlns="http://www.w3.org/2000/svg" xmlns:xlink="http://www.w3.org/1999/xlink">
<g id="graph0" class="graph" transform="scale(1 1) rotate(0) translate(4 724.25)">
<title>modules</title>
<g id="clust1" class="cluster">
<title>cluster_navigation</title>
<polygon fill="#aa96da" fill-opacity="0.062745" stroke="#aa96da" stroke-dasharray="5,2" points="189.74,-207.1 189.74,-434.45 496.04,-434.45 496.04,-207.1 189.74,-207.1"/>
<text xml:space="preserve" text-anchor="middle" x="453.54" y="-417.15" font-family="fixed" font-size="14.00" fill="#b5e4f4">navigation</text>
</g>
<g id="clust2" class="cluster">
<title>cluster_perception</title>
<polygon fill="#9575cd" fill-opacity="0.062745" stroke="#9575cd" stroke-dasharray="5,2" points="395.18,-593.59 395.18,-720.25 525.77,-720.25 525.77,-593.59 395.18,-593.59"/>
<text xml:space="preserve" text-anchor="middle" x="482.14" y="-702.95" font-family="fixed" font-size="14.00" fill="#b5e4f4">perception</text>
</g>
<g id="clust3" class="cluster">
<title>cluster_robot</title>
<polygon fill="#64b5f6" fill-opacity="0.062745" stroke="#64b5f6" stroke-dasharray="5,2" points="565.16,-411.65 565.16,-540.75 685.56,-540.75 685.56,-411.65 565.16,-411.65"/>
<text xml:space="preserve" text-anchor="middle" x="659.94" y="-523.45" font-family="fixed" font-size="14.00" fill="#b5e4f4">robot</text>
</g>
<!-- AstarPlanner -->
<g id="node1" class="node">
<title>AstarPlanner</title>
<polygon fill="#0b0f0f" stroke="#5c9ff0" points="387.03,-398.95 298.38,-398.95 298.38,-362.95 387.03,-362.95 387.03,-398.95"/>
<text xml:space="preserve" text-anchor="middle" x="342.71" y="-378.18" font-family="fixed" font-size="12.00" fill="#b5e4f4">AstarPlanner</text>
</g>
<!-- BehaviorTreeNavigator -->
<g id="node2" class="node">
<title>BehaviorTreeNavigator</title>
<polygon fill="#0b0f0f" stroke="#5c9ff0" points="342.64,-345.98 197.74,-345.98 197.74,-309.98 342.64,-309.98 342.64,-345.98"/>
<text xml:space="preserve" text-anchor="middle" x="270.19" y="-325.2" font-family="fixed" font-size="12.00" fill="#b5e4f4">BehaviorTreeNavigator</text>
</g>
<!-- AstarPlanner&#45;&gt;BehaviorTreeNavigator -->
<!-- ObjectTracking -->
<g id="node5" class="node">
<title>ObjectTracking</title>
<polygon fill="#0b0f0f" stroke="#5c9ff0" points="517.77,-637.59 418.62,-637.59 418.62,-601.59 517.77,-601.59 517.77,-637.59"/>
<text xml:space="preserve" text-anchor="middle" x="468.19" y="-616.82" font-family="fixed" font-size="12.00" fill="#b5e4f4">ObjectTracking</text>
</g>
<!-- AstarPlanner&#45;&gt;ObjectTracking -->
<!-- chan_path_Path -->
<g id="node17" class="node">
<title>chan_path_Path</title>
<polygon fill="#f06292" fill-opacity="0.207843" stroke="#f06292" points="89.39,-391.33 29.99,-391.33 29.99,-369.88 89.39,-369.88 89.39,-391.33"/>
<text xml:space="preserve" text-anchor="middle" x="59.69" y="-378.23" font-family="fixed" font-size="10.00" fill="#b5e4f4">path:Path</text>
</g>
<!-- AstarPlanner&#45;&gt;chan_path_Path -->
<g id="edge27" class="edge">
<title>AstarPlanner&#45;&gt;chan_path_Path</title>
<path fill="none" stroke="#f06292" d="M298.18,-380.9C239.96,-380.83 139.54,-380.71 89.64,-380.64"/>
</g>
<!-- HolonomicLocalPlanner -->
<g id="node3" class="node">
<title>HolonomicLocalPlanner</title>
<polygon fill="#0b0f0f" stroke="#5c9ff0" points="488.04,-299.16 337.89,-299.16 337.89,-263.16 488.04,-263.16 488.04,-299.16"/>
<text xml:space="preserve" text-anchor="middle" x="412.97" y="-278.38" font-family="fixed" font-size="12.00" fill="#b5e4f4">HolonomicLocalPlanner</text>
</g>
<!-- BehaviorTreeNavigator&#45;&gt;HolonomicLocalPlanner -->
<!-- chan_goal_reached_Bool -->
<g id="node13" class="node">
<title>chan_goal_reached_Bool</title>
<polygon fill="#dce775" fill-opacity="0.207843" stroke="#dce775" points="372.88,-21.45 272.98,-21.45 272.98,0 372.88,0 372.88,-21.45"/>
<text xml:space="preserve" text-anchor="middle" x="322.93" y="-8.35" font-family="fixed" font-size="10.00" fill="#b5e4f4">goal_reached:Bool</text>
</g>
<!-- BehaviorTreeNavigator&#45;&gt;chan_goal_reached_Bool -->
<g id="edge19" class="edge">
<title>BehaviorTreeNavigator&#45;&gt;chan_goal_reached_Bool</title>
<path fill="none" stroke="#dce775" d="M265.7,-309.77C262.31,-295.05 257.95,-273.73 256.15,-254.8 247.33,-162.08 298.92,-55.54 316.91,-21.66"/>
</g>
<!-- chan_target_PoseStamped -->
<g id="node18" class="node">
<title>chan_target_PoseStamped</title>
<polygon fill="#ff6b6b" fill-opacity="0.207843" stroke="#ff6b6b" points="598.02,-583.4 488.37,-583.4 488.37,-561.95 598.02,-561.95 598.02,-583.4"/>
<text xml:space="preserve" text-anchor="middle" x="543.19" y="-570.3" font-family="fixed" font-size="10.00" fill="#b5e4f4">target:PoseStamped</text>
</g>
<!-- BehaviorTreeNavigator&#45;&gt;chan_target_PoseStamped -->
<g id="edge29" class="edge">
<title>BehaviorTreeNavigator&#45;&gt;chan_target_PoseStamped</title>
<path fill="none" stroke="#ff6b6b" d="M272.81,-346.41C275.85,-362.54 282.15,-385.96 294.68,-402.65 327.32,-446.13 470.98,-531.2 523.7,-561.57"/>
</g>
<!-- WavefrontFrontierExplorer -->
<g id="node4" class="node">
<title>WavefrontFrontierExplorer</title>
<polygon fill="#0b0f0f" stroke="#5c9ff0" points="425.75,-251.1 259.85,-251.1 259.85,-215.1 425.75,-215.1 425.75,-251.1"/>
<text xml:space="preserve" text-anchor="middle" x="342.8" y="-230.32" font-family="fixed" font-size="12.00" fill="#b5e4f4">WavefrontFrontierExplorer</text>
</g>
<!-- HolonomicLocalPlanner&#45;&gt;WavefrontFrontierExplorer -->
<!-- chan_cmd_vel_Twist -->
<g id="node10" class="node">
<title>chan_cmd_vel_Twist</title>
<polygon fill="#4db6ac" fill-opacity="0.207843" stroke="#4db6ac" points="663.24,-307.7 585.09,-307.7 585.09,-286.25 663.24,-286.25 663.24,-307.7"/>
<text xml:space="preserve" text-anchor="middle" x="624.16" y="-294.6" font-family="fixed" font-size="10.00" fill="#b5e4f4">cmd_vel:Twist</text>
</g>
<!-- HolonomicLocalPlanner&#45;&gt;chan_cmd_vel_Twist -->
<g id="edge10" class="edge">
<title>HolonomicLocalPlanner&#45;&gt;chan_cmd_vel_Twist</title>
<path fill="none" stroke="#4db6ac" d="M488.32,-286.8C520.89,-289.24 557.67,-292 584.73,-294.02"/>
</g>
<!-- chan_goal_request_PoseStamped -->
<g id="node14" class="node">
<title>chan_goal_request_PoseStamped</title>
<polygon fill="#fff59d" fill-opacity="0.207843" stroke="#fff59d" points="141.15,-141.54 0,-141.54 0,-120.09 141.15,-120.09 141.15,-141.54"/>
<text xml:space="preserve" text-anchor="middle" x="70.58" y="-128.44" font-family="fixed" font-size="10.00" fill="#b5e4f4">goal_request:PoseStamped</text>
</g>
<!-- WavefrontFrontierExplorer&#45;&gt;chan_goal_request_PoseStamped -->
<g id="edge21" class="edge">
<title>WavefrontFrontierExplorer&#45;&gt;chan_goal_request_PoseStamped</title>
<path fill="none" stroke="#fff59d" d="M293.82,-214.69C237.48,-193.53 146.8,-159.45 100.25,-141.96"/>
</g>
<!-- SpatialMemory -->
<g id="node6" class="node">
<title>SpatialMemory</title>
<polygon fill="#0b0f0f" stroke="#5c9ff0" points="503.83,-684.75 403.18,-684.75 403.18,-648.75 503.83,-648.75 503.83,-684.75"/>
<text xml:space="preserve" text-anchor="middle" x="453.5" y="-663.97" font-family="fixed" font-size="12.00" fill="#b5e4f4">SpatialMemory</text>
</g>
<!-- ObjectTracking&#45;&gt;SpatialMemory -->
<!-- GO2Connection -->
<g id="node7" class="node">
<title>GO2Connection</title>
<polygon fill="#0b0f0f" stroke="#5c9ff0" points="677.56,-505.25 573.16,-505.25 573.16,-469.25 677.56,-469.25 677.56,-505.25"/>
<text xml:space="preserve" text-anchor="middle" x="625.36" y="-484.47" font-family="fixed" font-size="12.00" fill="#b5e4f4">GO2Connection</text>
</g>
<!-- ObjectTracking&#45;&gt;GO2Connection -->
<!-- Map -->
<g id="node8" class="node">
<title>Map</title>
<polygon fill="#0b0f0f" stroke="#5c9ff0" points="662.28,-455.65 608.28,-455.65 608.28,-419.65 662.28,-419.65 662.28,-455.65"/>
<text xml:space="preserve" text-anchor="middle" x="635.28" y="-434.87" font-family="fixed" font-size="12.00" fill="#b5e4f4">Map</text>
</g>
<!-- GO2Connection&#45;&gt;Map -->
<!-- chan_camera_info_CameraInfo -->
<g id="node9" class="node">
<title>chan_camera_info_CameraInfo</title>
<polygon fill="#dce775" fill-opacity="0.207843" stroke="#dce775" points="731,-699 602.6,-699 602.6,-677.55 731,-677.55 731,-699"/>
<text xml:space="preserve" text-anchor="middle" x="666.8" y="-685.9" font-family="fixed" font-size="10.00" fill="#b5e4f4">camera_info:CameraInfo</text>
</g>
<!-- GO2Connection&#45;&gt;chan_camera_info_CameraInfo -->
<g id="edge8" class="edge">
<title>GO2Connection&#45;&gt;chan_camera_info_CameraInfo</title>
<path fill="none" stroke="#dce775" d="M629.11,-505.44C637.52,-546.23 657.67,-643.98 664.49,-677.09"/>
</g>
<!-- chan_color_image_Image -->
<g id="node11" class="node">
<title>chan_color_image_Image</title>
<polygon fill="#95e1d3" fill-opacity="0.207843" stroke="#95e1d3" points="478.78,-568.46 375.13,-568.46 375.13,-547.01 478.78,-547.01 478.78,-568.46"/>
<text xml:space="preserve" text-anchor="middle" x="426.95" y="-555.36" font-family="fixed" font-size="10.00" fill="#b5e4f4">color_image:Image</text>
</g>
<!-- GO2Connection&#45;&gt;chan_color_image_Image -->
<g id="edge12" class="edge">
<title>GO2Connection&#45;&gt;chan_color_image_Image</title>
<path fill="none" stroke="#95e1d3" d="M573.49,-505.68C536.98,-518.65 489.29,-535.59 458.4,-546.56"/>
</g>
<!-- chan_lidar_LidarMessage -->
<g id="node15" class="node">
<title>chan_lidar_LidarMessage</title>
<polygon fill="#7986cb" fill-opacity="0.207843" stroke="#7986cb" points="882.83,-508.34 780.68,-508.34 780.68,-486.89 882.83,-486.89 882.83,-508.34"/>
<text xml:space="preserve" text-anchor="middle" x="831.75" y="-495.24" font-family="fixed" font-size="10.00" fill="#b5e4f4">lidar:LidarMessage</text>
</g>
<!-- GO2Connection&#45;&gt;chan_lidar_LidarMessage -->
<g id="edge23" class="edge">
<title>GO2Connection&#45;&gt;chan_lidar_LidarMessage</title>
<path fill="none" stroke="#7986cb" d="M677.98,-489.89C709.39,-491.47 749.1,-493.47 780.3,-495.03"/>
</g>
<!-- chan_global_costmap_OccupancyGrid -->
<g id="node12" class="node">
<title>chan_global_costmap_OccupancyGrid</title>
<polygon fill="#ff8a65" fill-opacity="0.207843" stroke="#ff8a65" points="671.01,-400.16 512.61,-400.16 512.61,-378.71 671.01,-378.71 671.01,-400.16"/>
<text xml:space="preserve" text-anchor="middle" x="591.81" y="-387.06" font-family="fixed" font-size="10.00" fill="#b5e4f4">global_costmap:OccupancyGrid</text>
</g>
<!-- Map&#45;&gt;chan_global_costmap_OccupancyGrid -->
<g id="edge15" class="edge">
<title>Map&#45;&gt;chan_global_costmap_OccupancyGrid</title>
<path fill="none" stroke="#ff8a65" d="M618.85,-419.42C613.08,-413.02 606.77,-406.03 601.71,-400.41"/>
</g>
<!-- chan_local_costmap_OccupancyGrid -->
<g id="node16" class="node">
<title>chan_local_costmap_OccupancyGrid</title>
<polygon fill="#f06292" fill-opacity="0.207843" stroke="#f06292" points="740.85,-249.8 589.95,-249.8 589.95,-228.35 740.85,-228.35 740.85,-249.8"/>
<text xml:space="preserve" text-anchor="middle" x="665.4" y="-236.7" font-family="fixed" font-size="10.00" fill="#b5e4f4">local_costmap:OccupancyGrid</text>
</g>
<!-- Map&#45;&gt;chan_local_costmap_OccupancyGrid -->
<g id="edge25" class="edge">
<title>Map&#45;&gt;chan_local_costmap_OccupancyGrid</title>
<path fill="none" stroke="#f06292" d="M662.5,-419.89C667.45,-415.3 671.92,-409.92 674.71,-403.86 699.13,-350.76 678.72,-277.65 669.42,-250.14"/>
</g>
<!-- chan_camera_info_CameraInfo&#45;&gt;ObjectTracking -->
<g id="edge9" class="edge">
<title>chan_camera_info_CameraInfo&#45;&gt;ObjectTracking</title>
<path fill="none" stroke="#dce775" d="M634.45,-677.08C605.86,-667.2 563.41,-652.52 528.56,-640.47"/>
<polygon fill="#dce775" stroke="#dce775" points="530.04,-637.28 519.45,-637.32 527.76,-643.89 530.04,-637.28"/>
</g>
<!-- chan_cmd_vel_Twist&#45;&gt;GO2Connection -->
<g id="edge11" class="edge">
<title>chan_cmd_vel_Twist&#45;&gt;GO2Connection</title>
<path fill="none" stroke="#4db6ac" d="M634.37,-308.07C646.73,-322.31 666.84,-348.39 674.71,-375.01 685.39,-411.15 686.08,-427.47 665.98,-459.35 665.78,-459.67 665.57,-460 665.35,-460.32"/>
<polygon fill="#4db6ac" stroke="#4db6ac" points="662.86,-457.84 658.89,-467.67 668.12,-462.46 662.86,-457.84"/>
</g>
<!-- chan_color_image_Image&#45;&gt;ObjectTracking -->
<g id="edge14" class="edge">
<title>chan_color_image_Image&#45;&gt;ObjectTracking</title>
<path fill="none" stroke="#95e1d3" d="M434.33,-568.79C438.66,-575.29 444.34,-583.81 449.81,-592.01"/>
<polygon fill="#95e1d3" stroke="#95e1d3" points="446.74,-593.72 455.19,-600.09 452.56,-589.83 446.74,-593.72"/>
</g>
<!-- chan_color_image_Image&#45;&gt;SpatialMemory -->
<g id="edge13" class="edge">
<title>chan_color_image_Image&#45;&gt;SpatialMemory</title>
<path fill="none" stroke="#95e1d3" d="M421.35,-568.76C414.53,-583.65 404.73,-610.92 415.21,-638.25"/>
<polygon fill="#95e1d3" stroke="#95e1d3" points="411.89,-639.43 419.37,-646.93 418.2,-636.4 411.89,-639.43"/>
</g>
<!-- chan_global_costmap_OccupancyGrid&#45;&gt;AstarPlanner -->
<g id="edge16" class="edge">
<title>chan_global_costmap_OccupancyGrid&#45;&gt;AstarPlanner</title>
<path fill="none" stroke="#ff8a65" d="M512.31,-386.73C475.37,-385.47 432.33,-384 398.84,-382.86"/>
<polygon fill="#ff8a65" stroke="#ff8a65" points="399.05,-379.37 388.94,-382.53 398.81,-386.36 399.05,-379.37"/>
</g>
<!-- chan_global_costmap_OccupancyGrid&#45;&gt;BehaviorTreeNavigator -->
<g id="edge17" class="edge">
<title>chan_global_costmap_OccupancyGrid&#45;&gt;BehaviorTreeNavigator</title>
<path fill="none" stroke="#ff8a65" d="M533.19,-378.23C483.08,-368.66 410.37,-354.76 354.09,-344.01"/>
<polygon fill="#ff8a65" stroke="#ff8a65" points="355.04,-340.63 344.56,-342.19 353.72,-347.5 355.04,-340.63"/>
</g>
<!-- chan_global_costmap_OccupancyGrid&#45;&gt;WavefrontFrontierExplorer -->
<g id="edge18" class="edge">
<title>chan_global_costmap_OccupancyGrid&#45;&gt;WavefrontFrontierExplorer</title>
<path fill="none" stroke="#ff8a65" d="M586.9,-378.51C574.8,-352.96 540.93,-289.28 491.74,-259.46 475.31,-249.5 456.12,-243.08 437.07,-238.99"/>
<polygon fill="#ff8a65" stroke="#ff8a65" points="437.86,-235.58 427.38,-237.13 436.54,-242.46 437.86,-235.58"/>
</g>
<!-- chan_goal_reached_Bool&#45;&gt;WavefrontFrontierExplorer -->
<g id="edge20" class="edge">
<title>chan_goal_reached_Bool&#45;&gt;WavefrontFrontierExplorer</title>
<path fill="none" stroke="#dce775" d="M323.92,-21.75C326.87,-54.79 335.71,-153.72 340.16,-203.63"/>
<polygon fill="#dce775" stroke="#dce775" points="336.66,-203.75 341.04,-213.4 343.63,-203.13 336.66,-203.75"/>
</g>
<!-- chan_goal_request_PoseStamped&#45;&gt;BehaviorTreeNavigator -->
<g id="edge22" class="edge">
<title>chan_goal_request_PoseStamped&#45;&gt;BehaviorTreeNavigator</title>
<path fill="none" stroke="#fff59d" d="M81.88,-141.98C112.79,-172.51 199.37,-258.03 243.54,-301.66"/>
<polygon fill="#fff59d" stroke="#fff59d" points="240.88,-303.94 250.45,-308.48 245.8,-298.96 240.88,-303.94"/>
</g>
<!-- chan_lidar_LidarMessage&#45;&gt;Map -->
<g id="edge24" class="edge">
<title>chan_lidar_LidarMessage&#45;&gt;Map</title>
<path fill="none" stroke="#7986cb" d="M795.26,-486.48C760.61,-475.9 708.73,-460.07 673.52,-449.32"/>
<polygon fill="#7986cb" stroke="#7986cb" points="674.75,-446.04 664.17,-446.46 672.71,-452.73 674.75,-446.04"/>
</g>
<!-- chan_local_costmap_OccupancyGrid&#45;&gt;HolonomicLocalPlanner -->
<g id="edge26" class="edge">
<title>chan_local_costmap_OccupancyGrid&#45;&gt;HolonomicLocalPlanner</title>
<path fill="none" stroke="#f06292" d="M598.08,-250.3C567.77,-255.35 531.62,-261.38 499.34,-266.76"/>
<polygon fill="#f06292" stroke="#f06292" points="498.88,-263.29 489.59,-268.38 500.03,-270.19 498.88,-263.29"/>
</g>
<!-- chan_path_Path&#45;&gt;HolonomicLocalPlanner -->
<g id="edge28" class="edge">
<title>chan_path_Path&#45;&gt;HolonomicLocalPlanner</title>
<path fill="none" stroke="#f06292" d="M74.9,-369.55C98.89,-352.74 147.58,-321.15 194.04,-306.28 236.34,-292.74 285.29,-286.31 326.17,-283.33"/>
<polygon fill="#f06292" stroke="#f06292" points="326.21,-286.84 335.96,-282.68 325.75,-279.85 326.21,-286.84"/>
</g>
<!-- chan_target_PoseStamped&#45;&gt;AstarPlanner -->
<g id="edge30" class="edge">
<title>chan_target_PoseStamped&#45;&gt;AstarPlanner</title>
<path fill="none" stroke="#ff6b6b" d="M531.55,-561.54C500.44,-531.8 414.77,-449.87 370.3,-407.34"/>
<polygon fill="#ff6b6b" stroke="#ff6b6b" points="372.73,-404.82 363.08,-400.44 367.89,-409.88 372.73,-404.82"/>
</g>
</g>
</svg>
